<?xml version="1.0" encoding="utf-8"?>
<!-- Generator: Adobe Illustrator 17.0.0, SVG Export Plug-In . SVG Version: 6.00 Build 0)  -->
<!DOCTYPE svg PUBLIC "-//W3C//DTD SVG 1.1//EN" "http://www.w3.org/Graphics/SVG/1.1/DTD/svg11.dtd">
<svg version="1.1" id="Layer_1" xmlns="http://www.w3.org/2000/svg" xmlns:xlink="http://www.w3.org/1999/xlink" x="0px" y="0px"
	 width="792px" height="612px" viewBox="0 0 792 612" enable-background="new 0 0 792 612" xml:space="preserve">
<g>
	<defs>
		<rect id="SVGID_1_" x="313" y="152.1" width="161.4" height="316.9"/>
	</defs>
	<clipPath id="SVGID_2_">
		<use xlink:href="#SVGID_1_"  overflow="visible"/>
	</clipPath>
	<g clip-path="url(#SVGID_2_)">
		<defs>
			<rect id="SVGID_3_" x="313" y="152.1" width="161.4" height="316.9"/>
		</defs>
		<clipPath id="SVGID_4_">
			<use xlink:href="#SVGID_3_"  overflow="visible"/>
		</clipPath>
		<g opacity="0.49" clip-path="url(#SVGID_4_)">
			<g>
				<defs>
					<rect id="SVGID_5_" x="361.9" y="216.9" width="82.6" height="76.6"/>
				</defs>
				<clipPath id="SVGID_6_">
					<use xlink:href="#SVGID_5_"  overflow="visible"/>
				</clipPath>
				<path clip-path="url(#SVGID_6_)" fill="#FDE4DD" d="M403.2,292.5c17.8,0,32.3-15.4,32.3-34.3c0-18.9-14.5-34.3-32.3-34.3
					c-17.8,0-32.3,15.4-32.3,34.3C370.9,277.2,385.4,292.5,403.2,292.5"/>
			</g>
		</g>
		<g opacity="0.49" clip-path="url(#SVGID_4_)">
			<g>
				<defs>
					<rect id="SVGID_7_" x="324.7" y="173.1" width="100.6" height="96.4"/>
				</defs>
				<clipPath id="SVGID_8_">
					<use xlink:href="#SVGID_7_"  overflow="visible"/>
				</clipPath>
				<path clip-path="url(#SVGID_8_)" fill="#FFEACD" d="M370.9,264.4c-20.7-1.7-35.8-21-33.7-43.1c2.1-22.2,20.6-38.8,41.3-37.1
					c20.7,1.7,35.8,21,33.7,43.1C410.1,249.4,391.6,266,370.9,264.4"/>
			</g>
		</g>
		<g opacity="0.49" clip-path="url(#SVGID_4_)">
			<g>
				<defs>
					<rect id="SVGID_9_" x="353.1" y="142" width="79.5" height="73.6"/>
				</defs>
				<clipPath id="SVGID_10_">
					<use xlink:href="#SVGID_9_"  overflow="visible"/>
				</clipPath>
				<path clip-path="url(#SVGID_10_)" fill="#CCE4DD" d="M395.9,211.3c15.4-1.2,26.6-15.5,25-31.8c-1.6-16.3-15.3-28.6-30.7-27.3
					c-15.4,1.2-26.6,15.5-25,31.8C366.8,200.4,380.5,212.6,395.9,211.3"/>
			</g>
		</g>
		<g opacity="0.49" clip-path="url(#SVGID_4_)">
			<g>
				<defs>
					<rect id="SVGID_11_" x="391.8" y="283.7" width="24.9" height="13.7"/>
				</defs>
				<clipPath id="SVGID_12_">
					<use xlink:href="#SVGID_11_"  overflow="visible"/>
				</clipPath>
				<rect x="400.8" y="290.7" clip-path="url(#SVGID_12_)" fill="#FDE4DD" width="6.9" height="5.7"/>
			</g>
		</g>
		<g opacity="0.49" clip-path="url(#SVGID_4_)">
			<g>
				<defs>
					<rect id="SVGID_13_" x="382.8" y="201.9" width="26" height="15.9"/>
				</defs>
				<clipPath id="SVGID_14_">
					<use xlink:href="#SVGID_13_"  overflow="visible"/>
				</clipPath>
				<polygon clip-path="url(#SVGID_14_)" fill="#CCE4DD" points="392.4,210.2 392.9,215.9 399.7,215.4 399.2,209.7 				"/>
			</g>
		</g>
		<g opacity="0.49" clip-path="url(#SVGID_4_)">
			<g>
				<defs>
					<rect id="SVGID_15_" x="358.2" y="253.4" width="26" height="15.9"/>
				</defs>
				<clipPath id="SVGID_16_">
					<use xlink:href="#SVGID_15_"  overflow="visible"/>
				</clipPath>
				<polygon clip-path="url(#SVGID_16_)" fill="#FFEACD" points="374.6,261.8 374,267.5 367.2,267 367.8,261.2 				"/>
			</g>
		</g>
		<g opacity="0.49" clip-path="url(#SVGID_4_)">
			<g>
				<defs>
					<rect id="SVGID_17_" x="382.2" y="186.4" width="82.6" height="76.6"/>
				</defs>
				<clipPath id="SVGID_18_">
					<use xlink:href="#SVGID_17_"  overflow="visible"/>
				</clipPath>
				<path clip-path="url(#SVGID_18_)" fill="#FDE4DD" d="M423.5,262c17.8,0,32.3-15.4,32.3-34.3s-14.5-34.3-32.3-34.3
					c-17.8,0-32.3,15.4-32.3,34.3S405.7,262,423.5,262"/>
			</g>
		</g>
		<g opacity="0.49" clip-path="url(#SVGID_4_)">
			<g>
				<defs>
					<rect id="SVGID_19_" x="412.1" y="253.2" width="24.9" height="13.7"/>
				</defs>
				<clipPath id="SVGID_20_">
					<use xlink:href="#SVGID_19_"  overflow="visible"/>
				</clipPath>
				<rect x="421.1" y="260.2" clip-path="url(#SVGID_20_)" fill="#FDE4DD" width="6.9" height="5.7"/>
			</g>
		</g>
	</g>
	<rect x="401.6" y="354.6" clip-path="url(#SVGID_2_)" fill="#F5F6F6" width="9.5" height="4.8"/>
	<line clip-path="url(#SVGID_2_)" fill="none" stroke="#FFFFFF" stroke-width="0.5" x1="404.8" y1="297.2" x2="407.8" y2="359.1"/>
	<line clip-path="url(#SVGID_2_)" fill="none" stroke="#FFFFFF" stroke-width="0.5" x1="371.5" y1="268.3" x2="407.8" y2="359.2"/>
	<line clip-path="url(#SVGID_2_)" fill="none" stroke="#FFFFFF" stroke-width="0.5" x1="425.7" y1="266.7" x2="408.3" y2="359.3"/>
	<line clip-path="url(#SVGID_2_)" fill="none" stroke="#FFFFFF" stroke-width="0.5" x1="396.7" y1="216.7" x2="408.3" y2="359.4"/>
	<rect x="350.5" y="359.4" clip-path="url(#SVGID_2_)" fill="#F26967" width="123.9" height="59.3"/>
	<g clip-path="url(#SVGID_2_)">
		<defs>
			<rect id="SVGID_21_" x="313" y="152.1" width="161.4" height="316.9"/>
		</defs>
		<clipPath id="SVGID_22_">
			<use xlink:href="#SVGID_21_"  overflow="visible"/>
		</clipPath>
		<ellipse clip-path="url(#SVGID_22_)" fill="none" stroke="#FFFFFF" stroke-width="4" cx="330.9" cy="453.6" rx="15.9" ry="13.4"/>
	</g>
	<rect x="315.4" y="418.1" clip-path="url(#SVGID_2_)" fill="#F26967" width="159" height="12.1"/>
	<rect x="320" y="351.9" clip-path="url(#SVGID_2_)" fill="#F5F6F6" width="27.2" height="66.2"/>
	<g clip-path="url(#SVGID_2_)">
		<defs>
			<rect id="SVGID_23_" x="313" y="152.1" width="161.4" height="316.9"/>
		</defs>
		<clipPath id="SVGID_24_">
			<use xlink:href="#SVGID_23_"  overflow="visible"/>
		</clipPath>
		<path clip-path="url(#SVGID_24_)" fill="#F5F6F6" d="M333.6,363.8c7.5,0,13.6-5.4,13.6-12c0-6.6-6.1-12-13.6-12
			c-7.5,0-13.6,5.4-13.6,12C320,358.5,326.1,363.8,333.6,363.8"/>
	</g>
	<line clip-path="url(#SVGID_2_)" fill="none" stroke="#FFFFFF" stroke-width="4" x1="330.9" y1="441.3" x2="330.9" y2="430.1"/>
	<rect x="317.9" y="386.6" clip-path="url(#SVGID_2_)" width="32.6" height="4.7"/>
	<rect x="330.7" y="337.2" clip-path="url(#SVGID_2_)" fill="#FFFFFF" width="5.9" height="3.8"/>
	<rect x="330.7" y="337.2" clip-path="url(#SVGID_2_)" fill="none" stroke="#FFFFFF" width="5.9" height="3.8"/>
	<g clip-path="url(#SVGID_2_)">
		<defs>
			<rect id="SVGID_25_" x="313" y="152.1" width="161.4" height="316.9"/>
		</defs>
		<clipPath id="SVGID_26_">
			<use xlink:href="#SVGID_25_"  overflow="visible"/>
		</clipPath>
		<path clip-path="url(#SVGID_26_)" fill="#0E1238" d="M333.6,335.1c2.8,0,5-0.7,5-1.6c0-0.9-2.2-1.6-5-1.6c-2.8,0-5,0.7-5,1.6
			C328.6,334.4,330.8,335.1,333.6,335.1"/>
		<g opacity="0.23" clip-path="url(#SVGID_26_)">
			<g>
				<defs>
					<rect id="SVGID_27_" x="341.8" y="352.8" width="141.6" height="78"/>
				</defs>
				<clipPath id="SVGID_28_">
					<use xlink:href="#SVGID_27_"  overflow="visible"/>
				</clipPath>
				<polygon clip-path="url(#SVGID_28_)" fill="#E04148" points="474.4,359.8 350.8,359.8 474.4,429.7 				"/>
			</g>
		</g>
		<ellipse clip-path="url(#SVGID_26_)" fill="none" stroke="#FFFFFF" stroke-width="4" cx="425" cy="430.1" rx="40.3" ry="36.9"/>
	</g>
</g>
</svg>
