<?xml version="1.0" encoding="utf-8"?>
<!-- Generator: Adobe Illustrator 17.0.0, SVG Export Plug-In . SVG Version: 6.00 Build 0)  -->
<!DOCTYPE svg PUBLIC "-//W3C//DTD SVG 1.1//EN" "http://www.w3.org/Graphics/SVG/1.1/DTD/svg11.dtd">
<svg version="1.1" id="Layer_1" xmlns="http://www.w3.org/2000/svg" xmlns:xlink="http://www.w3.org/1999/xlink" x="0px" y="0px"
	 width="157.2px" height="133.3px" viewBox="0 0 157.2 133.3" enable-background="new 0 0 157.2 133.3" xml:space="preserve">
<g>
	<path fill="#FFE62C" d="M125.9,115.3C125.9,115.3,125.9,115.3,125.9,115.3H35.7v0c-4,0.1-7.2,4.1-7.2,9s3.2,8.9,7.2,9v0h0.1
		c0,0,0,0,0,0c0,0,0,0,0,0h33.1c2.5-5,6.6-8.3,11.2-8.3s8.7,3.3,11.2,8.3h34.6c0,0,0,0,0,0c4.1,0,7.3-4,7.3-9
		C133.2,119.4,129.9,115.3,125.9,115.3z"/>
</g>
<path fill="#FFE62C" d="M138.1,92.3H21.5v0c-0.1,0-0.3,0-0.4,0h0c-5.2,0-9.5,4-9.5,9s4.2,9,9.5,9h0c0.1,0,0.3,0,0.4,0v0H138l0,0
	c0,0,0,0,0,0c5.2,0,9.5-4,9.5-9v0C147.5,96.3,143.3,92.3,138.1,92.3z"/>
<path fill="#FFE62C" d="M146.2,69.1H11.5v0c-0.2,0-0.3,0-0.5,0h0c-6.1,0-11,4.1-11,9.1c0,5,4.9,9.1,11,9.1h0c0.2,0,0.3,0,0.5,0v0
	h134.7l0,0c0,0,0,0,0,0c6.1,0,11-4.1,11-9.1v0C157.2,73.1,152.3,69.1,146.2,69.1z"/>
<path fill="#FFE62C" d="M138.1,46.3H21.5v0c-0.1,0-0.3,0-0.4,0h0c-5.2,0-9.5,4-9.5,9s4.2,9,9.5,9h0c0.1,0,0.3,0,0.4,0v0H138l0,0
	c0,0,0,0,0,0c5.2,0,9.5-4,9.5-9v0C147.5,50.3,143.3,46.3,138.1,46.3z"/>
<path fill="#FFE62C" d="M125,22.9H34.5v0c-0.1,0-0.2,0-0.3,0h0c-4.1,0-7.4,4.1-7.4,9.1s3.3,9.1,7.4,9.1h0c0.1,0,0.2,0,0.3,0v0H125
	l0,0c0,0,0,0,0,0c4.1,0,7.4-4,7.4-9v0C132.3,27,129,22.9,125,22.9z"/>
<path fill="#FFE62C" d="M111.1,0L111.1,0l-0.8,0c0,0,0,0,0,0c0,0,0,0,0,0h-63v0.2C43.5,1,40.7,4.6,40.7,9s2.9,8,6.6,8.8V18h63.8v0
	c4.1-0.5,7.3-4.3,7.3-8.9S115.3,0.5,111.1,0z"/>
</svg>
