<?xml version="1.0" encoding="utf-8"?>
<!-- Generator: Adobe Illustrator 17.0.0, SVG Export Plug-In . SVG Version: 6.00 Build 0)  -->
<!DOCTYPE svg PUBLIC "-//W3C//DTD SVG 1.1//EN" "http://www.w3.org/Graphics/SVG/1.1/DTD/svg11.dtd">
<svg version="1.1" id="Layer_1" xmlns="http://www.w3.org/2000/svg" xmlns:xlink="http://www.w3.org/1999/xlink" x="0px" y="0px"
	 width="157.2px" height="366.3px" viewBox="0 0 157.2 366.3" enable-background="new 0 0 157.2 366.3" xml:space="preserve">
<g>
	<path fill="#FFE629" d="M125.9,348.3L125.9,348.3H35.7l0,0c-4,0.1-7.2,4.1-7.2,9c0,4.9,3.2,8.9,7.2,9l0,0h0.1l0,0l0,0h33.1
		c2.5-5,6.6-8.3,11.2-8.3s8.7,3.3,11.2,8.3h34.6l0,0c4.1,0,7.3-4,7.3-9C133.2,352.4,129.9,348.3,125.9,348.3z"/>
</g>
<path fill="#FFE629" d="M138.1,325.3H21.5l0,0c-0.1,0-0.3,0-0.4,0l0,0c-5.2,0-9.5,4-9.5,9s4.2,9,9.5,9l0,0c0.1,0,0.3,0,0.4,0l0,0
	H138l0,0l0,0c5.2,0,9.5-4,9.5-9l0,0C147.5,329.3,143.3,325.3,138.1,325.3z"/>
<path fill="#FFE629" d="M146.2,302.1H11.5l0,0c-0.2,0-0.3,0-0.5,0l0,0c-6.1,0-11,4.1-11,9.1s4.9,9.1,11,9.1l0,0c0.2,0,0.3,0,0.5,0
	l0,0h134.7l0,0l0,0c6.1,0,11-4.1,11-9.1l0,0C157.2,306.1,152.3,302.1,146.2,302.1z"/>
<path fill="#FFE629" d="M138.1,279.3H21.5l0,0c-0.1,0-0.3,0-0.4,0l0,0c-5.2,0-9.5,4-9.5,9s4.2,9,9.5,9l0,0c0.1,0,0.3,0,0.4,0l0,0
	H138l0,0l0,0c5.2,0,9.5-4,9.5-9l0,0C147.5,283.3,143.3,279.3,138.1,279.3z"/>
<path fill="#FFE629" d="M125,255.9H34.5l0,0c-0.1,0-0.2,0-0.3,0l0,0c-4.1,0-7.4,4.1-7.4,9.1s3.3,9.1,7.4,9.1l0,0c0.1,0,0.2,0,0.3,0
	l0,0H125l0,0l0,0c4.1,0,7.4-4,7.4-9l0,0C132.3,260,129,255.9,125,255.9z"/>
<path fill="#FFE629" d="M111.1,233L111.1,233h-0.8l0,0l0,0h-63v0.2c-3.8,0.8-6.6,4.4-6.6,8.8s2.9,8,6.6,8.8v0.2h63.8l0,0
	c4.1-0.5,7.3-4.3,7.3-8.9C118.4,237.5,115.3,233.5,111.1,233z"/>
<line fill="none" stroke="#56332B" stroke-width="2" stroke-miterlimit="10" x1="78.6" y1="233" x2="78.6" y2="0"/>
</svg>
