<?xml version="1.0" encoding="utf-8"?>
<!-- Generator: Adobe Illustrator 17.0.0, SVG Export Plug-In . SVG Version: 6.00 Build 0)  -->
<!DOCTYPE svg PUBLIC "-//W3C//DTD SVG 1.1//EN" "http://www.w3.org/Graphics/SVG/1.1/DTD/svg11.dtd">
<svg version="1.1" id="Layer_1" xmlns="http://www.w3.org/2000/svg" xmlns:xlink="http://www.w3.org/1999/xlink" x="0px" y="0px"
	 width="792px" height="612px" viewBox="0 0 792 612" enable-background="new 0 0 792 612" xml:space="preserve">
<rect x="369.9" y="351.7" fill="#D68E28" width="69.3" height="5"/>
<rect x="369.9" y="356.7" fill="#6F431A" width="69.3" height="2.8"/>
<rect x="400.8" y="359.5" fill="#D68E28" width="2.5" height="39.5"/>
<rect x="403.3" y="359.5" fill="#6F431A" width="2.5" height="39.5"/>
<rect x="405.7" y="359.5" fill="#D68E28" width="2.5" height="39.5"/>
<rect x="369.1" y="399" fill="#D68E28" width="71.3" height="5"/>
<rect x="399.7" y="395.2" transform="matrix(-8.715874e-02 -0.9962 0.9962 -8.715874e-02 83.694 870.9318)" fill="#D68E28" width="82.3" height="3.8"/>
<rect x="366.3" y="356" transform="matrix(-0.9962 -8.731999e-02 8.731999e-02 -0.9962 700.1783 824.8687)" fill="#D68E28" width="3.8" height="82.3"/>
<rect x="339.1" y="256.4" transform="matrix(8.715889e-02 -0.9962 0.9962 8.715889e-02 89.7498 614.5541)" fill="#D68E28" width="82.3" height="3.8"/>
<rect x="428.1" y="217.2" transform="matrix(0.9962 -8.735171e-02 8.735171e-02 0.9962 -20.9198 38.5459)" fill="#D68E28" width="3.8" height="82.3"/>
<rect x="403.5" y="404" fill="#6F431A" width="2.5" height="10.8"/>
</svg>
