<?xml version="1.0" encoding="utf-8"?>
<!-- Generator: Adobe Illustrator 17.0.0, SVG Export Plug-In . SVG Version: 6.00 Build 0)  -->
<!DOCTYPE svg PUBLIC "-//W3C//DTD SVG 1.1//EN" "http://www.w3.org/Graphics/SVG/1.1/DTD/svg11.dtd">
<svg version="1.1" id="Layer_1" xmlns="http://www.w3.org/2000/svg" xmlns:xlink="http://www.w3.org/1999/xlink" x="0px" y="0px"
	 width="792px" height="612px" viewBox="0 0 792 612" enable-background="new 0 0 792 612" xml:space="preserve">
<polygon fill="#D8955F" points="385.6,303.8 397.6,345 409.7,303.8 "/>
<g>
	<defs>
		<rect id="SVGID_1_" x="378" y="267.6" width="39.2" height="77.4"/>
	</defs>
	<clipPath id="SVGID_2_">
		<use xlink:href="#SVGID_1_"  overflow="visible"/>
	</clipPath>
	<path clip-path="url(#SVGID_2_)" fill="#CCE7D3" d="M397.6,304.8c10.8,0,19.6-8.3,19.6-18.6c0-10.3-8.8-18.6-19.6-18.6
		S378,276,378,286.2C378,296.5,386.8,304.8,397.6,304.8"/>
	<path clip-path="url(#SVGID_2_)" fill="#CCE7D3" d="M382.7,304.8c1.5,0,2.8-1.3,2.8-2.8s-1.3-2.8-2.8-2.8s-2.8,1.3-2.8,2.8
		S381.1,304.8,382.7,304.8"/>
	<path clip-path="url(#SVGID_2_)" fill="#CCE7D3" d="M387.3,304.8c1.5,0,2.8-1.3,2.8-2.8s-1.3-2.8-2.8-2.8s-2.8,1.3-2.8,2.8
		S385.7,304.8,387.3,304.8"/>
	<path clip-path="url(#SVGID_2_)" fill="#CCE7D3" d="M408.6,304.8c1.5,0,2.8-1.3,2.8-2.8s-1.3-2.8-2.8-2.8s-2.8,1.3-2.8,2.8
		S407.1,304.8,408.6,304.8"/>
	<path clip-path="url(#SVGID_2_)" fill="#CCE7D3" d="M413.2,304.8c1.5,0,2.8-1.3,2.8-2.8s-1.3-2.8-2.8-2.8s-2.8,1.3-2.8,2.8
		S411.7,304.8,413.2,304.8"/>
	<path clip-path="url(#SVGID_2_)" fill="#CCE7D3" d="M390.7,304.8c1.5,0,2.8-1.3,2.8-2.8s-1.3-2.8-2.8-2.8c-1.5,0-2.8,1.3-2.8,2.8
		S389.2,304.8,390.7,304.8"/>
	<path clip-path="url(#SVGID_2_)" fill="#CCE7D3" d="M395.3,304.8c1.5,0,2.8-1.3,2.8-2.8s-1.3-2.8-2.8-2.8c-1.5,0-2.8,1.3-2.8,2.8
		S393.8,304.8,395.3,304.8"/>
	<path clip-path="url(#SVGID_2_)" fill="#CCE7D3" d="M400.5,304.8c1.5,0,2.8-1.3,2.8-2.8s-1.3-2.8-2.8-2.8c-1.5,0-2.8,1.3-2.8,2.8
		S399,304.8,400.5,304.8"/>
	<path clip-path="url(#SVGID_2_)" fill="#CCE7D3" d="M405.1,304.8c1.5,0,2.8-1.3,2.8-2.8s-1.3-2.8-2.8-2.8c-1.5,0-2.8,1.3-2.8,2.8
		S403.6,304.8,405.1,304.8"/>
</g>
</svg>
