<?xml version="1.0" encoding="utf-8"?>
<!-- Generator: Adobe Illustrator 17.0.0, SVG Export Plug-In . SVG Version: 6.00 Build 0)  -->
<!DOCTYPE svg PUBLIC "-//W3C//DTD SVG 1.1//EN" "http://www.w3.org/Graphics/SVG/1.1/DTD/svg11.dtd">
<svg version="1.1" id="Layer_1" xmlns="http://www.w3.org/2000/svg" xmlns:xlink="http://www.w3.org/1999/xlink" x="0px" y="0px"
	 width="99.6px" height="122px" viewBox="0 0 99.6 122" enable-background="new 0 0 99.6 122" xml:space="preserve">
<path fill="#BADA89" d="M64.9,62c2.5-2.5,4.5-5.2,7.4-7.3c2.7-2,5.8-3.5,9-4.6c3.9-1.4,8-1.9,12.1-2.5c1.3-0.2,2.7-0.4,4-0.6
	c0.3-0.1,2.1-0.1,2.3-0.4c-1.7,2.4-3.6,4-5.9,5.9c-1.4,1.2-2.9,2.2-4.5,3.2c-3.3,2-6.9,3.2-10.7,4.1c-3,0.7-6.1,1.2-9.1,1.6
	C69.1,61.3,64.9,62.1,64.9,62z"/>
<path fill="#DEE898" d="M58.5,77c-0.1,0.1-9-6.4-9.5-6.8c-4.3-2.9-9.3-5.9-14.5-6.8c-4.9-0.9-9.1,1-12.4,4.5
	c-2.9,3.1-4.8,6.7-7.2,10.1c0,0-5.7,7.8-5.7,7.8s0.3,1.5,0.3,1.5c3.1,2.4,5.9,5.3,9,7.7c2.1,1.6,4.3,2.8,6.8,3.6
	c6.4,2,12.7-0.1,17.8-4c5.5-4.1,9.5-8.8,13.2-14.5C56.4,80.2,58.5,77,58.5,77z"/>
<path fill="#DEE898" d="M62,71.1c-0.1-0.1,7.5-8.1,7.9-8.6c3.5-3.9,7-8.5,8.6-13.5c1.5-4.8,0.2-9.1-2.9-12.9c-2.7-3.3-6-5.6-9.1-8.4
	c0,0-7.1-6.7-7.1-6.7s-1.6,0.1-1.6,0.1c-2.8,2.8-6,5.2-8.8,8c-1.8,1.8-3.4,3.9-4.4,6.3c-2.8,6.1-1.5,12.6,1.7,18.2
	c3.4,5.9,7.5,10.5,12.7,15C59.1,68.6,62,71.1,62,71.1z"/>
<path fill="#B4D785" d="M62.6,72.4c-0.1,0-3-12.9-3.1-13.6c-1.5-6-3.7-12.7-7.6-17.7c-3.7-4.7-8.9-6.3-14.7-5.8
	c-5,0.5-9.6,2.2-14.5,3.3c0,0-11.4,2.5-11.4,2.5s-1,1.6-1,1.6c0.9,4.7,1.1,9.5,2,14.1c0.6,3,1.6,6,3.2,8.7
	c4.1,6.9,11.4,10,19.2,10.6c8.2,0.6,15.5-0.4,23.4-2.4C58.1,73.6,62.6,72.4,62.6,72.4z"/>
<path fill="#BADA89" d="M55.1,73.4c1.2,3.3,2.8,6.3,3.4,9.8c0.6,3.3,0.6,6.8,0.3,10.1c-0.4,4.1-1.8,8-3,12c-0.4,1.3-0.8,2.6-1.2,3.9
	c-0.1,0.3-0.8,1.9-0.7,2.2c-1.4-2.6-2.1-5-2.7-7.8c-0.4-1.8-0.7-3.6-0.9-5.5c-0.3-3.8,0.1-7.6,1-11.4c0.7-3,1.6-6,2.5-8.9
	C53.8,77.5,54.9,73.4,55.1,73.4z"/>
<g>
	<line fill="none" stroke="#2BB673" stroke-miterlimit="10" x1="63.2" y1="61" x2="91" y2="32.8"/>
	<line fill="none" stroke="#2BB673" stroke-miterlimit="10" x1="77.4" y1="46.5" x2="82.9" y2="50.7"/>
	<line fill="none" stroke="#2BB673" stroke-miterlimit="10" x1="82.9" y1="50.7" x2="88" y2="50.4"/>
	<line fill="none" stroke="#2BB673" stroke-miterlimit="10" x1="82.9" y1="50.7" x2="82.9" y2="57.1"/>
	<line fill="none" stroke="#2BB673" stroke-miterlimit="10" x1="82.9" y1="50.7" x2="79.5" y2="55.1"/>
	<line fill="none" stroke="#2BB673" stroke-miterlimit="10" x1="74.4" y1="49.4" x2="73.5" y2="43.3"/>
	<line fill="none" stroke="#2BB673" stroke-miterlimit="10" x1="73.5" y1="43.3" x2="70.3" y2="39.5"/>
	<line fill="none" stroke="#2BB673" stroke-miterlimit="10" x1="73.5" y1="43.3" x2="79.2" y2="38.9"/>
	<line fill="none" stroke="#2BB673" stroke-miterlimit="10" x1="75.6" y1="41.6" x2="75.9" y2="37.8"/>
	<line fill="none" stroke="#2BB673" stroke-miterlimit="10" x1="86.2" y1="37.7" x2="90.2" y2="38.1"/>
	<line fill="none" stroke="#2BB673" stroke-miterlimit="10" x1="86.2" y1="37.7" x2="85.5" y2="32.7"/>
	<line fill="none" stroke="#2BB673" stroke-miterlimit="10" x1="64.1" y1="59.9" x2="64.7" y2="48.6"/>
	<line fill="none" stroke="#2BB673" stroke-miterlimit="10" x1="64.7" y1="48.6" x2="66.7" y2="47.2"/>
	<line fill="none" stroke="#2BB673" stroke-miterlimit="10" x1="64.7" y1="48.6" x2="65.2" y2="44.2"/>
	<ellipse transform="matrix(0.1545 -0.988 0.988 0.1545 13.9206 100.5036)" fill="#8A77B7" cx="65.7" cy="42.1" rx="2.6" ry="1.5"/>
	
		<ellipse transform="matrix(0.6963 -0.7177 0.7177 0.6963 -12.0754 62.7813)" fill="#8A77B7" cx="68.2" cy="45.7" rx="2.6" ry="1.5"/>
	
		<ellipse transform="matrix(-0.6815 -0.7318 0.7318 -0.6815 88.135 114.4778)" fill="#8A77B7" cx="69" cy="38.1" rx="2.6" ry="1.5"/>
	
		<ellipse transform="matrix(0.4765 -0.8792 0.8792 0.4765 -8.8724 98.8857)" fill="#8A77B7" cx="78.6" cy="56.9" rx="2.6" ry="1.5"/>
	
		<ellipse transform="matrix(2.765239e-02 -0.9996 0.9996 2.765239e-02 21.3577 140.5673)" fill="#8A77B7" cx="82.9" cy="59.3" rx="2.6" ry="1.5"/>
	
		<ellipse transform="matrix(6.813211e-02 -0.9977 0.9977 6.813211e-02 35.0014 109.1291)" fill="#8A77B7" cx="75.9" cy="35.8" rx="2.6" ry="1.5"/>
	<ellipse transform="matrix(0.7596 -0.6504 0.6504 0.7596 -5.017 61.4322)" fill="#8A77B7" cx="80.6" cy="37.5" rx="2.6" ry="1.5"/>
	
		<ellipse transform="matrix(0.9966 -8.204624e-02 8.204624e-02 0.9966 -3.825 7.55)" fill="#8A77B7" cx="90" cy="50.3" rx="2.6" ry="1.5"/>
	
		<ellipse transform="matrix(-0.1398 -0.9902 0.9902 -0.1398 66.824 119.1709)" fill="#8A77B7" cx="85.2" cy="30.6" rx="2.6" ry="1.5"/>
	
		<ellipse transform="matrix(-0.9947 -0.1027 0.1027 -0.9947 179.7535 85.9216)" fill="#8A77B7" cx="92.1" cy="38.3" rx="2.6" ry="1.5"/>
	<ellipse transform="matrix(0.6648 -0.747 0.747 0.6648 7.5831 79.4249)" fill="#8A77B7" cx="92.3" cy="31.3" rx="2.6" ry="1.5"/>
</g>
<g>
	<line fill="none" stroke="#2BB673" stroke-miterlimit="10" x1="67.4" y1="66.5" x2="71.1" y2="11.5"/>
	<line fill="none" stroke="#2BB673" stroke-miterlimit="10" x1="68.6" y1="49.2" x2="65.9" y2="45.7"/>
	<line fill="none" stroke="#2BB673" stroke-miterlimit="10" x1="69.5" y1="34.9" x2="72.7" y2="33.4"/>
	<line fill="none" stroke="#2BB673" stroke-miterlimit="10" x1="70.2" y1="24.6" x2="72.4" y2="20.8"/>
	<line fill="none" stroke="#2BB673" stroke-miterlimit="10" x1="70.1" y1="26.4" x2="67.4" y2="23.5"/>
	<path fill="#E3A6CB" d="M80.8,34.7c1.6,0.6,3.2,0.3,3.6-0.7c0.2-0.7-0.1-1.5-0.9-2.1c0.7-0.4,1.1-0.9,1.1-1.6
		c0-0.7-0.6-1.2-1.5-1.6c0.2-0.5,0.3-1,0.1-1.5c-0.3-0.6-1-0.8-1.9-0.8c0-0.6-0.2-1.2-0.6-1.5c-0.9-0.6-2.4,0-3.3,1.4
		c-1,1.4-1,3-0.1,3.6c0.2,0.1,0.4,0.2,0.6,0.2c0.1,0.2,0.4,0.4,0.6,0.5c0.1,0.2,0.2,0.5,0.4,0.7c-0.1,0.1-0.2,0.2-0.2,0.4
		C78.2,32.8,79.2,34.1,80.8,34.7z"/>
	<g>
		<path fill="#2BB673" d="M74.1,29c1.3-1.8,3.1-1.6,4,0.4l1.1,2.4c0.9,2-0.1,3.5-2.3,3.3l-2.7-0.2c-2.2-0.2-3-1.8-1.7-3.6L74.1,29z"
			/>
	</g>
	<path fill="#E3A6CB" d="M75.8,5.9c1.4-1.1,2-2.6,1.3-3.4c-0.4-0.6-1.3-0.7-2.3-0.3c0-0.8-0.2-1.5-0.8-1.8c-0.6-0.3-1.4-0.1-2.1,0.4
		C71.6,0.3,71.2,0,70.7,0c-0.7,0-1.3,0.4-1.7,1.2c-0.5-0.4-1.1-0.5-1.6-0.2c-1,0.4-1.3,2-0.6,3.6c0.7,1.5,2,2.4,3,2
		c0.2-0.1,0.4-0.2,0.5-0.4c0.3,0,0.5-0.1,0.8-0.3c0.2,0.1,0.5,0.1,0.8,0C72,6,72,6.2,72.1,6.3C72.8,7.1,74.4,7,75.8,5.9z"/>
	<g>
		<path fill="#2BB673" d="M72,5.3c2.2,0,3.1,1.6,2.1,3.5l-1,1.9c-1.1,1.9-2.8,1.9-3.9,0l-1.1-1.9c-1.1-1.9-0.1-3.5,2.1-3.5L72,5.3z"
			/>
	</g>
	<path fill="#E3A6CB" d="M79.9,20.9c1.6,0.3,3.1-0.2,3.3-1.2c0.1-0.7-0.4-1.4-1.2-1.9c0.6-0.5,0.9-1.1,0.8-1.7
		c-0.1-0.6-0.8-1.1-1.6-1.3c0.2-0.5,0.1-1.1-0.2-1.4c-0.4-0.5-1.1-0.6-1.9-0.5c-0.1-0.6-0.4-1.1-0.8-1.3c-0.9-0.5-2.3,0.4-3,1.9
		c-0.7,1.5-0.5,3,0.4,3.5c0.2,0.1,0.4,0.1,0.6,0.1c0.2,0.2,0.4,0.3,0.7,0.4c0.1,0.2,0.2,0.4,0.4,0.6c-0.1,0.1-0.1,0.3-0.2,0.4
		C77.1,19.4,78.2,20.5,79.9,20.9z"/>
	<g>
		<path fill="#2BB673" d="M72.3,17c0.8-2,2.6-2.3,4-0.6l1.7,2.1c1.4,1.7,0.7,3.4-1.5,3.7l-2.6,0.4c-2.2,0.3-3.3-1.1-2.5-3.1L72.3,17
			z"/>
	</g>
	<path fill="#E3A6CB" d="M67.4,15.2c0.3-1.8-0.3-3.5-1.5-3.8c-0.8-0.2-1.6,0.4-2.2,1.3c-0.6-0.7-1.3-1.1-2-0.9
		c-0.7,0.2-1.2,0.9-1.4,1.8c-0.6-0.2-1.2-0.1-1.6,0.2c-0.6,0.4-0.7,1.3-0.5,2.2c-0.7,0.1-1.3,0.4-1.5,0.9c-0.5,1.1,0.5,2.6,2.2,3.4
		c1.7,0.8,3.5,0.6,4-0.5c0.1-0.2,0.1-0.5,0.1-0.7c0.2-0.2,0.4-0.5,0.4-0.8c0.3-0.1,0.5-0.3,0.7-0.5c0.1,0.1,0.3,0.2,0.5,0.2
		C65.8,18.3,67,17,67.4,15.2z"/>
	<g>
		<path fill="#2BB673" d="M62.8,23.1c-2-0.9-2.2-2.7-0.5-4l2.1-1.6c1.8-1.3,3.4-0.6,3.7,1.6l0.3,2.7c0.3,2.2-1.2,3.3-3.2,2.4
			L62.8,23.1z"/>
	</g>
	<path fill="#E3A6CB" d="M66.6,39.1c0.3-1.7-0.3-3.2-1.4-3.4c-0.7-0.1-1.5,0.4-2,1.2c-0.5-0.6-1.2-1-1.8-0.8
		c-0.7,0.1-1.1,0.8-1.3,1.7c-0.6-0.2-1.1-0.1-1.5,0.2c-0.5,0.4-0.7,1.2-0.5,2c-0.7,0.1-1.2,0.4-1.4,0.9c-0.5,1,0.5,2.4,2,3.1
		c1.6,0.7,3.2,0.5,3.7-0.4c0.1-0.2,0.1-0.4,0.1-0.7c0.2-0.2,0.3-0.4,0.4-0.7c0.2-0.1,0.4-0.2,0.6-0.5c0.1,0.1,0.3,0.1,0.4,0.2
		C65.1,41.9,66.3,40.7,66.6,39.1z"/>
	<g>
		<path fill="#2BB673" d="M62.7,46.5c-2-0.9-2.2-2.7-0.5-4l1.4-1.1c1.8-1.3,3.4-0.6,3.7,1.6l0.2,1.8c0.3,2.2-1.2,3.3-3.2,2.4
			L62.7,46.5z"/>
	</g>
</g>
<g>
	<line fill="none" stroke="#2BB673" stroke-miterlimit="10" x1="44.4" y1="79.1" x2="34.7" y2="117.5"/>
	<line fill="none" stroke="#2BB673" stroke-miterlimit="10" x1="39.5" y1="98.7" x2="32.6" y2="97.9"/>
	<line fill="none" stroke="#2BB673" stroke-miterlimit="10" x1="32.6" y1="97.9" x2="28.4" y2="100.8"/>
	<line fill="none" stroke="#2BB673" stroke-miterlimit="10" x1="32.6" y1="97.9" x2="29.3" y2="92.4"/>
	<line fill="none" stroke="#2BB673" stroke-miterlimit="10" x1="32.6" y1="97.9" x2="33.3" y2="92.4"/>
	<line fill="none" stroke="#2BB673" stroke-miterlimit="10" x1="40.6" y1="94.7" x2="44.5" y2="99.5"/>
	<line fill="none" stroke="#2BB673" stroke-miterlimit="10" x1="44.5" y1="99.5" x2="49.2" y2="101.1"/>
	<line fill="none" stroke="#2BB673" stroke-miterlimit="10" x1="44.5" y1="99.5" x2="41.8" y2="106.3"/>
	<line fill="none" stroke="#2BB673" stroke-miterlimit="10" x1="43.5" y1="102.1" x2="45.3" y2="105.5"/>
	<line fill="none" stroke="#2BB673" stroke-miterlimit="10" x1="36.4" y1="110.8" x2="32.8" y2="112.5"/>
	<line fill="none" stroke="#2BB673" stroke-miterlimit="10" x1="36.4" y1="110.8" x2="39.6" y2="114.7"/>
	<line fill="none" stroke="#2BB673" stroke-miterlimit="10" x1="44.1" y1="80.4" x2="49.4" y2="90.5"/>
	<line fill="none" stroke="#2BB673" stroke-miterlimit="10" x1="49.4" y1="90.5" x2="48.4" y2="92.7"/>
	<line fill="none" stroke="#2BB673" stroke-miterlimit="10" x1="49.4" y1="90.5" x2="51.2" y2="94.5"/>
	
		<ellipse transform="matrix(0.3697 0.9291 -0.9291 0.3697 122.3773 12.707)" fill="#8A77B7" cx="51.8" cy="96.6" rx="2.6" ry="1.5"/>
	
		<ellipse transform="matrix(-0.2341 0.9722 -0.9722 -0.2341 151.2419 70.3896)" fill="#8A77B7" cx="47.9" cy="94.8" rx="2.6" ry="1.5"/>
	
		<ellipse transform="matrix(0.9591 0.2832 -0.2832 0.9591 30.8976 -10.2923)" fill="#8A77B7" cx="51.1" cy="101.7" rx="2.6" ry="1.5"/>
	
		<ellipse transform="matrix(3.727379e-02 0.9993 -0.9993 3.727379e-02 122.3006 53.8739)" fill="#8A77B7" cx="33.2" cy="90.4" rx="2.6" ry="1.5"/>
	
		<ellipse transform="matrix(0.4849 0.8746 -0.8746 0.4849 93.7253 21.9528)" fill="#8A77B7" cx="28.2" cy="90.5" rx="2.6" ry="1.5"/>
	
		<ellipse transform="matrix(0.4491 0.8935 -0.8935 0.4491 121.2279 17.76)" fill="#8A77B7" cx="46.2" cy="107.2" rx="2.6" ry="1.5"/>
	
		<ellipse transform="matrix(-0.3228 0.9465 -0.9465 -0.3228 157.019 103.8875)" fill="#8A77B7" cx="41.3" cy="108.1" rx="2.6" ry="1.5"/>
	
		<ellipse transform="matrix(-0.8162 0.5778 -0.5778 -0.8162 107.4477 169.5221)" fill="#8A77B7" cx="26.8" cy="101.9" rx="2.6" ry="1.5"/>
	
		<ellipse transform="matrix(0.6242 0.7813 -0.7813 0.6242 106.3408 11.7814)" fill="#8A77B7" cx="40.9" cy="116.4" rx="2.6" ry="1.5"/>
	
		<ellipse transform="matrix(0.9086 -0.4178 0.4178 0.9086 -44.4788 23.3157)" fill="#8A77B7" cx="31" cy="113.3" rx="2.6" ry="1.5"/>
	
		<ellipse transform="matrix(-0.1921 0.9814 -0.9814 -0.1921 158.2773 108.5887)" fill="#8A77B7" cx="34.4" cy="119.4" rx="2.6" ry="1.5"/>
</g>
<g>
	<line fill="none" stroke="#2BB673" stroke-miterlimit="10" x1="51.8" y1="74.5" x2="10.7" y2="111.1"/>
	<line fill="none" stroke="#2BB673" stroke-miterlimit="10" x1="38.9" y1="86" x2="38.3" y2="90.4"/>
	<line fill="none" stroke="#2BB673" stroke-miterlimit="10" x1="28.2" y1="95.5" x2="24.8" y2="94.4"/>
	<line fill="none" stroke="#2BB673" stroke-miterlimit="10" x1="20.5" y1="102.4" x2="16.3" y2="103.6"/>
	<line fill="none" stroke="#2BB673" stroke-miterlimit="10" x1="21.8" y1="101.1" x2="21.7" y2="105.1"/>
	<path fill="#E3A6CB" d="M20,87.8c-0.7-1.6-2.1-2.5-3-2c-0.6,0.3-0.9,1.2-0.9,2.1c-0.8-0.2-1.5-0.1-1.9,0.3
		c-0.4,0.5-0.4,1.3-0.1,2.1c-0.5,0.2-0.9,0.5-1.1,1c-0.2,0.6,0.1,1.3,0.8,1.9c-0.5,0.4-0.7,1-0.6,1.5c0.2,1.1,1.7,1.7,3.4,1.4
		c1.7-0.3,2.8-1.4,2.6-2.5c0-0.2-0.2-0.4-0.3-0.6c0.1-0.3,0-0.5-0.1-0.8c0.1-0.2,0.2-0.5,0.2-0.7c0.1,0,0.3,0,0.4-0.1
		C20.5,91,20.7,89.3,20,87.8z"/>
	<g>
		<path fill="#2BB673" d="M20.8,96.5c-2.2,0.4-3.3-1-2.6-3l0.9-2.5c0.7-2.1,2.5-2.4,3.9-0.7l1.7,2c1.4,1.7,0.8,3.4-1.3,3.8
			L20.8,96.5z"/>
	</g>
	<path fill="#E3A6CB" d="M3.3,111.8c-1.7-0.2-3.2,0.5-3.3,1.5c-0.1,0.7,0.5,1.4,1.4,1.9c-0.6,0.5-0.9,1.2-0.7,1.8
		c0.2,0.6,0.9,1.1,1.8,1.2c-0.1,0.6,0,1.1,0.3,1.5c0.4,0.5,1.2,0.6,2,0.3c0.1,0.6,0.5,1.1,1,1.3c1,0.4,2.3-0.6,2.9-2.1
		c0.6-1.6,0.3-3.2-0.8-3.6c-0.2-0.1-0.4-0.1-0.7-0.1c-0.2-0.2-0.4-0.3-0.7-0.4c-0.1-0.2-0.3-0.4-0.5-0.6c0.1-0.1,0.1-0.3,0.1-0.4
		C6.4,113,5.1,112,3.3,111.8z"/>
	<g>
		<path fill="#2BB673" d="M5.6,114.9c-1.6-1.5-1.1-3.3,1-4l2.1-0.6c2.1-0.6,3.3,0.6,2.8,2.7l-0.6,2.1c-0.6,2.1-2.4,2.6-3.9,1.1
			L5.6,114.9z"/>
	</g>
	<path fill="#E3A6CB" d="M11,98.3c-0.9-1.4-2.4-2-3.2-1.5C7.1,97.2,7,98.1,7.2,99c-0.8-0.1-1.4,0.1-1.8,0.6c-0.3,0.5-0.2,1.3,0.3,2
		c-0.5,0.3-0.8,0.7-0.9,1.1c-0.1,0.6,0.3,1.2,1,1.7c-0.4,0.5-0.5,1.1-0.4,1.5c0.4,1,1.9,1.3,3.4,0.8c1.5-0.6,2.5-1.8,2.2-2.8
		c-0.1-0.2-0.2-0.4-0.4-0.5c0-0.3-0.1-0.5-0.2-0.8c0.1-0.2,0.1-0.5,0.1-0.7c0.1,0,0.3-0.1,0.4-0.2C11.9,101.2,11.9,99.6,11,98.3z"/>
	<g>
		<path fill="#2BB673" d="M13.6,106.3c-2,0.9-3.5-0.2-3.2-2.4l0.3-2.7c0.2-2.2,1.9-2.9,3.7-1.6l2.2,1.6c1.8,1.3,1.6,3.1-0.4,4
			L13.6,106.3z"/>
	</g>
	<path fill="#E3A6CB" d="M15.9,111.1c-1.5,1.1-2.3,2.7-1.6,3.7c0.5,0.7,1.4,0.8,2.5,0.6c-0.1,0.9,0.2,1.7,0.7,2
		c0.6,0.4,1.5,0.2,2.3-0.3c0.3,0.6,0.8,1,1.3,1c0.7,0.1,1.4-0.4,1.9-1.2c0.6,0.4,1.2,0.6,1.8,0.4c1.1-0.4,1.5-2.2,0.8-4
		c-0.7-1.8-2.1-2.9-3.2-2.5c-0.2,0.1-0.4,0.2-0.6,0.4c-0.3,0-0.6,0.1-0.8,0.2c-0.3-0.1-0.5-0.2-0.8-0.1c0-0.2-0.1-0.3-0.2-0.5
		C19.2,110,17.4,110,15.9,111.1z"/>
	<g>
		<path fill="#2BB673" d="M24.7,108.7c0.8,2-0.3,3.5-2.5,3.2l-2.6-0.4c-2.2-0.3-2.9-2-1.5-3.7l1.6-2.1c1.3-1.7,3.1-1.5,4,0.5
			L24.7,108.7z"/>
	</g>
	<path fill="#E3A6CB" d="M33.2,94.6c-1.4,1-2.1,2.5-1.4,3.4c0.4,0.6,1.3,0.8,2.3,0.5c-0.1,0.8,0.1,1.5,0.7,1.9
		c0.6,0.4,1.4,0.2,2.1-0.3c0.3,0.5,0.7,0.9,1.2,0.9c0.7,0.1,1.3-0.4,1.7-1.1c0.5,0.4,1.1,0.6,1.6,0.4c1-0.4,1.3-2,0.7-3.6
		c-0.6-1.6-1.9-2.6-2.9-2.3c-0.2,0.1-0.4,0.2-0.5,0.4c-0.3,0-0.5,0.1-0.8,0.2c-0.2-0.1-0.5-0.1-0.8-0.1c0-0.1-0.1-0.3-0.2-0.4
		C36.2,93.6,34.6,93.6,33.2,94.6z"/>
	<g>
		<path fill="#2BB673" d="M41.2,92.1c0.8,2-0.3,3.5-2.5,3.2L36.9,95c-2.2-0.3-2.9-2-1.5-3.7l1.1-1.4c1.3-1.7,3.1-1.5,4,0.5
			L41.2,92.1z"/>
	</g>
</g>
<g>
	<g>
		<g>
			<path fill="#C998C5" d="M46.7,81c-1.1,5.5-5.5,7-9.7,3.3S33.7,76,39,74.2C44.4,72.4,47.8,75.5,46.7,81z"/>
		</g>
		<g>
			<path fill="#C998C5" d="M45.9,82.8c0.5-5.6,4.7-7.5,9.3-4.3s4.2,7.9-1,10.2S45.3,88.4,45.9,82.8z"/>
		</g>
		<g>
			<path fill="#C998C5" d="M51.2,69.7c-0.4,5.6-4.6,7.6-9.3,4.5s-4.3-7.8,0.8-10.2S51.6,64.1,51.2,69.7z"/>
		</g>
		<g>
			<path fill="#C998C5" d="M54.5,78.7c5.4,1.6,8.8-1.6,7.4-7.1c-1.3-5.5-5.8-6.8-9.9-2.9S49.1,77.1,54.5,78.7z"/>
		</g>
	</g>
	
		<ellipse transform="matrix(0.9434 -0.3315 0.3315 0.9434 -22.4817 20.3332)" fill="#F9D8E7" cx="48.4" cy="76.1" rx="2.8" ry="2.8"/>
</g>
<g>
	<g>
		<g>
			<path fill="#839BD0" d="M50.1,58.5c-6.7,2.8-11.4-0.8-10.4-8c0.9-7.2,6.4-9.4,12.1-5.1S56.8,55.7,50.1,58.5z"/>
		</g>
		<g>
			<path fill="#839BD0" d="M47.6,58.9c6.3-3.5,11.4-0.4,11.2,6.8S53.4,75.8,47.3,72S41.2,62.4,47.6,58.9z"/>
		</g>
		<g>
			<path fill="#839BD0" d="M65.3,55.2c-6.3,3.6-11.4,0.6-11.4-6.6c0-7.2,5.1-10.2,11.4-6.5C71.5,45.7,71.5,51.6,65.3,55.2z"/>
		</g>
		<g>
			<path fill="#839BD0" d="M58.2,65.1c2.2,6.9,8,8.1,12.8,2.8c4.9-5.3,3.1-11-4-12.5S56,58.2,58.2,65.1z"/>
		</g>
	</g>
	<ellipse transform="matrix(0.8038 0.5948 -0.5948 0.8038 44.8374 -22.181)" fill="#E2DFEF" cx="56" cy="56.9" rx="3.4" ry="3.3"/>
</g>
<g>
	<g>
		<g>
			<path fill="#F8A8A2" d="M39.3,63.4c-1.1,4.1-4.5,5-7.4,2c-3-3-2.1-6.3,2-7.4S40.4,59.3,39.3,63.4z"/>
		</g>
		<g>
			<path fill="#F8A8A2" d="M38.6,64.7c0.7-4.2,3.9-5.4,7.2-2.7s2.7,6.1-1.2,7.6C40.6,71.1,37.9,68.9,38.6,64.7z"/>
		</g>
		<g>
			<path fill="#F8A8A2" d="M43.2,55.2c-0.6,4.2-3.8,5.5-7.1,2.9c-3.3-2.6-2.8-6,1.1-7.6S43.8,51,43.2,55.2z"/>
		</g>
		<g>
			<path fill="#F8A8A2" d="M45.3,62c4,1.5,6.6-0.8,5.9-4.9s-4-5.4-7.2-2.6C40.7,57.2,41.3,60.6,45.3,62z"/>
		</g>
	</g>
	<ellipse transform="matrix(0.9632 -0.2686 0.2686 0.9632 -14.6172 13.165)" fill="#FCE0E6" cx="40.8" cy="60" rx="2.5" ry="2.4"/>
</g>
</svg>
