<?xml version="1.0" encoding="utf-8"?>
<!-- Generator: Adobe Illustrator 17.0.0, SVG Export Plug-In . SVG Version: 6.00 Build 0)  -->
<!DOCTYPE svg PUBLIC "-//W3C//DTD SVG 1.1//EN" "http://www.w3.org/Graphics/SVG/1.1/DTD/svg11.dtd">
<svg version="1.1" id="Layer_1" xmlns="http://www.w3.org/2000/svg" xmlns:xlink="http://www.w3.org/1999/xlink" x="0px" y="0px"
	 width="295.8px" height="263.1px" viewBox="0 0 295.8 263.1" enable-background="new 0 0 295.8 263.1" xml:space="preserve">
<line fill="none" stroke="#2BB673" stroke-miterlimit="10" x1="69.2" y1="206.5" x2="12.9" y2="175.6"/>
<g>
	<line fill="none" stroke="#FFE383" stroke-width="2" stroke-miterlimit="10" x1="114" y1="70.3" x2="179.2" y2="70.3"/>
	<line fill="none" stroke="#FFE383" stroke-width="2" stroke-miterlimit="10" x1="90.8" y1="109" x2="119.8" y2="109"/>
	<line fill="none" stroke="#FFE383" stroke-width="2" stroke-miterlimit="10" x1="140.4" y1="109" x2="205.7" y2="109"/>
	<line fill="none" stroke="#FFE383" stroke-width="2" stroke-miterlimit="10" x1="161.4" y1="128.4" x2="199.1" y2="128.4"/>
	<line fill="none" stroke="#FFE383" stroke-miterlimit="10" x1="103.5" y1="145.3" x2="132.4" y2="145.3"/>
	<line fill="none" stroke="#FFE383" stroke-width="2" stroke-miterlimit="10" x1="97.7" y1="166.3" x2="121.6" y2="166.3"/>
	<path fill="none" stroke="#FFE383" stroke-width="2" stroke-miterlimit="10" d="M227.4,118.6c0-5.5-6.2-9.9-13.8-9.9h-3.8
		c7.2,0,13-4.5,13-10.1c0-5.6-5.8-10.1-13-10.1h-10.3c6,0,10.9-4,10.9-8.9s-4.9-8.9-10.9-8.9h-9.9c4.9,0,8.9-4,8.9-8.9
		s-4-8.9-8.9-8.9h-11.1c3.6,0,6.5-3.5,6.5-7.8c0-4.3-2.9-7.8-6.5-7.8h-63c-3.6,0-6.5,3.5-6.5,7.8c0,4.3,2.9,7.8,6.5,7.8H104
		c-4.9,0-8.9,4-8.9,8.9s4,8.9,8.9,8.9h-9.6c-6,0-10.9,4-10.9,8.9s4.9,8.9,10.9,8.9h-9.5c-7.2,0-13,4.5-13,10.1
		c0,5.6,5.8,10.1,13,10.1h-4.6c-7.6,0-13.8,4.4-13.8,9.9c0,5.5,6.2,9.9,13.8,9.9h4.2c-7.2,0-13,4.5-13,10.1c0,5.6,5.8,10.1,13,10.1
		h4.8c-6.6,0-12,4-12,8.9c0,4.9,5.4,8.9,12,8.9h5.5c-6,0-10.9,4-10.9,8.9c0,4.9,4.9,8.9,10.9,8.9h40.9v-16.1c0-6.6,5.4-12,12-12
		c6.6,0,12,5.4,12,12v16.1h40.2c6,0,10.9-4,10.9-8.9c0-4.9-4.9-8.9-10.9-8.9h4.7c6.6,0,12-4,12-8.9c0-4.9-5.4-8.9-12-8.9h4.8
		c7.2,0,13-4.5,13-10.1c0-5.6-5.8-10.1-13-10.1h4.2C221.2,128.4,227.4,124,227.4,118.6z"/>
</g>
<path fill="none" stroke="#B4D785" stroke-width="3" stroke-miterlimit="10" d="M172.6,5.5c0.2,0,0.3,0.1,0.5,0.1
	c52,11.7,90.9,58.1,91.1,113.6c0.2,64.5-52,117-116.5,117.2s-117-52-117.2-116.5C30.3,64,69.4,17.2,121.8,5.5
	c1.2-0.3,2.4-0.5,3.6-0.8"/>
<line fill="none" stroke="#B4D785" stroke-width="3" stroke-miterlimit="10" x1="148.5" y1="237.4" x2="129.2" y2="262.2"/>
<line fill="none" stroke="#B4D785" stroke-width="3" stroke-miterlimit="10" x1="148.5" y1="237.4" x2="168.4" y2="262.1"/>
<g>
	<path fill="#B4D785" d="M67.1,35.8c0-0.1,5.7-4.3,6-4.6c2.6-2.1,5.5-4.6,7.1-7.6c1.5-2.9,1.2-5.8-0.4-8.6c-1.3-2.4-3.2-4.3-4.8-6.4
		c0,0-3.7-5.1-3.7-5.1s-1-0.1-1-0.1c-2.1,1.5-4.4,2.6-6.5,4.1c-1.4,1-2.6,2.1-3.6,3.5c-2.5,3.6-2.4,7.9-1,11.8
		c1.5,4.2,3.6,7.6,6.4,11C65.6,33.8,67.1,35.8,67.1,35.8z"/>
	<path fill="#B4D785" d="M66.9,35.9c0.1,0.1,5-5.1,5.3-5.4c2.4-2.4,5.3-4.9,8.4-6.1c3-1.2,5.9-0.5,8.5,1.4c2.2,1.6,3.8,3.7,5.8,5.6
		c0,0,4.6,4.3,4.6,4.3s0,1,0,1c-1.7,1.9-3.1,4.1-4.8,6c-1.1,1.2-2.4,2.3-3.9,3.1c-3.8,2-8.1,1.4-11.9-0.4c-4-2-7.1-4.5-10.2-7.6
		C68.6,37.7,66.9,35.9,66.9,35.9z"/>
	<path fill="#B4D785" d="M44.8,63.8c-0.1,0,3.8-6,4-6.4c1.7-2.9,3.5-6.3,3.9-9.6c0.4-3.2-1-5.8-3.4-7.9c-2.1-1.8-4.5-2.9-6.8-4.3
		c0,0-5.3-3.4-5.3-3.4s-1,0.3-1,0.3c-1.4,2.1-3.2,4-4.7,6.1c-0.9,1.4-1.7,2.9-2.1,4.5c-1.1,4.2,0.5,8.2,3.2,11.4
		c2.9,3.4,6,5.8,9.8,8.1C42.7,62.6,44.8,63.8,44.8,63.8z"/>
	<path fill="#B4D785" d="M44.6,64.1c0.1,0,2.8-6.6,3-6.9c1.4-3.1,3.2-6.4,5.8-8.7c2.4-2.2,5.4-2.5,8.4-1.6c2.6,0.7,4.9,2.1,7.4,3.2
		c0,0,5.8,2.4,5.8,2.4s0.3,1,0.3,1c-0.9,2.4-1.5,4.9-2.4,7.3c-0.6,1.6-1.4,3-2.6,4.3c-2.9,3.2-7.1,4.2-11.3,3.8
		c-4.4-0.5-8.2-1.7-12.2-3.6C46.9,65.1,44.6,64.1,44.6,64.1z"/>
	<path fill="#B4D785" d="M32,97.2c-0.1,0,2.4-6.7,2.6-7.1c1.1-3.2,2-6.9,1.8-10.3c-0.3-3.2-2.2-5.5-5-7c-2.4-1.3-5-1.8-7.5-2.8
		c0,0-5.9-2.2-5.9-2.2S17,68.3,17,68.3c-1,2.4-2.3,4.6-3.2,7c-0.6,1.6-1,3.2-1.1,4.9c-0.1,4.3,2.3,7.9,5.6,10.5
		c3.5,2.7,7.1,4.4,11.3,5.8C29.6,96.4,32,97.2,32,97.2z"/>
	<path fill="#B4D785" d="M31.9,97.4c0.1,0,1.4-7,1.4-7.4c0.7-3.3,1.8-6.9,3.8-9.7c1.9-2.6,4.7-3.6,7.9-3.4c2.7,0.2,5.2,1,7.9,1.5
		c0,0,6.2,1.1,6.2,1.1s0.5,0.9,0.5,0.9c-0.4,2.5-0.4,5.1-0.8,7.7c-0.3,1.7-0.8,3.3-1.6,4.7c-2.1,3.8-6,5.6-10.2,6.1
		c-4.4,0.5-8.4,0.1-12.7-0.9C34.3,98,31.9,97.4,31.9,97.4z"/>
	<path fill="#B4D785" d="M31.5,134.8c-0.1,0,0.4-7.1,0.4-7.6c0.1-3.4,0-7.2-1.3-10.3c-1.2-3-3.7-4.6-6.8-5.2c-2.7-0.5-5.3-0.3-8-0.5
		c0,0-6.3-0.4-6.3-0.4s-0.7,0.7-0.7,0.7c-0.2,2.6-0.9,5.1-1.1,7.6c-0.1,1.7-0.1,3.4,0.4,5c1.1,4.2,4.5,6.9,8.4,8.4
		c4.2,1.6,8.1,2.1,12.5,2.2C29,134.7,31.5,134.8,31.5,134.8z"/>
	<path fill="#B4D785" d="M31.5,135c0.1,0-0.7-7.1-0.8-7.5c-0.3-3.4-0.3-7.2,0.8-10.4c1-3.1,3.5-4.8,6.5-5.6c2.7-0.6,5.3-0.5,8-0.9
		c0,0,6.3-0.7,6.3-0.7s0.8,0.7,0.8,0.7c0.4,2.5,1.1,5,1.4,7.6c0.2,1.7,0.2,3.4-0.1,5c-0.9,4.2-4.1,7.1-8,8.8
		c-4.1,1.8-8,2.5-12.4,2.8C34,134.8,31.5,135,31.5,135z"/>
	<path fill="#B4D785" d="M43.3,175.7c-0.1,0-2-6.9-2.1-7.3c-1-3.2-2.4-6.8-4.6-9.3c-2.1-2.5-5-3.2-8.1-2.7c-2.7,0.4-5.1,1.5-7.7,2.2
		c0,0-6.1,1.7-6.1,1.7s-0.5,0.9-0.5,0.9c0.6,2.5,0.9,5.1,1.5,7.5c0.4,1.6,1.1,3.2,2,4.6c2.4,3.6,6.5,5.1,10.7,5.2
		c4.4,0.1,8.4-0.6,12.6-2C40.9,176.5,43.3,175.7,43.3,175.7z"/>
	<path fill="#B4D785" d="M43.3,176c0.1,0-3-6.5-3.2-6.9c-1.4-3.1-2.6-6.7-2.7-10.1c0-3.2,1.7-5.7,4.4-7.4c2.3-1.5,4.8-2.3,7.3-3.4
		c0,0,5.7-2.7,5.7-2.7s0.9,0.4,0.9,0.4c1.2,2.3,2.7,4.4,3.8,6.7c0.8,1.5,1.3,3.1,1.5,4.8c0.5,4.3-1.6,8.1-4.7,10.9
		c-3.3,3-6.7,5-10.8,6.8C45.6,175,43.3,176,43.3,176z"/>
	<path fill="#B4D785" d="M114,231.8c0,0.1-6.3-3.4-6.6-3.6c-3-1.6-6.5-3.1-9.9-3.3c-3.2-0.2-5.8,1.3-7.6,3.9c-1.6,2.2-2.6,4.7-3.9,7
		c0,0-3.1,5.5-3.1,5.5s0.3,1,0.3,1c2.2,1.3,4.2,3,6.4,4.2c1.4,0.8,3,1.5,4.7,1.8c4.3,0.8,8.1-1,11.2-4c3.2-3.1,5.4-6.4,7.4-10.3
		C112.9,234,114,231.8,114,231.8z"/>
	<path fill="#B4D785" d="M114.2,232c0-0.1-6.7-2.4-7.1-2.5c-3.1-1.2-6.6-2.8-9-5.2c-2.3-2.3-2.8-5.2-2.2-8.3c0.6-2.7,1.8-5,2.7-7.6
		c0,0,2-6,2-6s0.9-0.4,0.9-0.4c2.4,0.8,5,1.2,7.4,2c1.6,0.5,3.1,1.2,4.5,2.3c3.4,2.7,4.6,6.8,4.5,11c-0.2,4.4-1.2,8.3-2.8,12.4
		C115.1,229.7,114.2,232,114.2,232z"/>
	<path fill="#B4D785" d="M72.3,208.6c-0.1,0-4.6-5.4-4.9-5.8c-2.2-2.5-5-5.2-8.1-6.6c-2.9-1.4-5.9-0.8-8.5,0.9
		c-2.3,1.5-4.1,3.5-6.1,5.2c0,0-4.8,4-4.8,4s0,1,0,1c1.6,2,2.9,4.3,4.5,6.3c1,1.3,2.3,2.5,3.7,3.4c3.7,2.3,8,1.9,11.9,0.3
		c4.1-1.7,7.4-4,10.6-7C70.4,210.3,72.3,208.6,72.3,208.6z"/>
	<path fill="#B4D785" d="M72.5,208.8c0-0.1-5.4-4.6-5.7-4.9c-2.5-2.2-5.2-5-6.6-8.1c-1.4-2.9-0.8-5.9,0.9-8.5
		c1.5-2.3,3.5-4.1,5.2-6.1c0,0,4-4.8,4-4.8s1,0,1,0c2,1.6,4.3,2.9,6.3,4.5c1.3,1,2.5,2.3,3.3,3.7c2.2,3.7,1.9,8,0.3,11.9
		c-1.7,4.1-4.1,7.3-7,10.6C74.1,207,72.5,208.8,72.5,208.8z"/>
</g>
<g>
	<path fill="#B4D785" d="M226.9,33.8c0-0.1-5.7-4.3-6-4.6c-2.6-2.1-5.5-4.6-7.1-7.6c-1.5-2.9-1.2-5.8,0.4-8.6
		c1.3-2.4,3.2-4.3,4.8-6.4c0,0,3.7-5.1,3.7-5.1s1-0.1,1-0.1c2.1,1.5,4.4,2.6,6.5,4.1c1.4,1,2.6,2.1,3.6,3.5c2.5,3.6,2.4,7.9,1,11.8
		c-1.5,4.2-3.6,7.6-6.4,11C228.5,31.8,226.9,33.8,226.9,33.8z"/>
	<path fill="#B4D785" d="M227.2,33.9c-0.1,0.1-5-5.1-5.3-5.4c-2.4-2.4-5.3-4.9-8.4-6.1c-3-1.2-5.9-0.5-8.5,1.4
		c-2.2,1.6-3.8,3.7-5.8,5.6c0,0-4.6,4.3-4.6,4.3s0,1,0,1c1.7,1.9,3.1,4.1,4.8,6c1.1,1.2,2.4,2.3,3.9,3.1c3.8,2,8.1,1.4,11.9-0.4
		c4-2,7.1-4.5,10.2-7.6C225.4,35.7,227.2,33.9,227.2,33.9z"/>
	<path fill="#B4D785" d="M249.3,61.9c0.1,0-3.8-6-4-6.4c-1.7-2.9-3.5-6.3-3.9-9.6c-0.4-3.2,1-5.8,3.4-7.9c2.1-1.8,4.5-2.9,6.8-4.3
		c0,0,5.3-3.4,5.3-3.4s1,0.3,1,0.3c1.4,2.1,3.2,4,4.7,6.1c0.9,1.4,1.7,2.9,2.1,4.5c1.1,4.2-0.5,8.2-3.2,11.4c-2.9,3.4-6,5.8-9.8,8.1
		C251.4,60.6,249.3,61.9,249.3,61.9z"/>
	<path fill="#B4D785" d="M249.4,62.1c-0.1,0-2.8-6.6-3-6.9c-1.4-3.1-3.2-6.4-5.8-8.7c-2.4-2.2-5.4-2.5-8.4-1.6
		c-2.6,0.7-4.9,2.1-7.4,3.2c0,0-5.8,2.4-5.8,2.4s-0.3,1-0.3,1c0.9,2.4,1.5,4.9,2.4,7.3c0.6,1.6,1.4,3,2.6,4.3
		c2.9,3.2,7.1,4.2,11.3,3.8c4.4-0.5,8.2-1.7,12.2-3.6C247.2,63.1,249.4,62.1,249.4,62.1z"/>
	<path fill="#B4D785" d="M262.1,95.2c0.1,0-2.4-6.7-2.6-7.1c-1.1-3.2-2-6.9-1.8-10.3c0.3-3.2,2.2-5.5,5-7c2.4-1.3,5-1.8,7.5-2.8
		c0,0,5.9-2.2,5.9-2.2s0.9,0.5,0.9,0.5c1,2.4,2.3,4.6,3.2,7c0.6,1.6,1,3.2,1.1,4.9c0.1,4.3-2.3,7.9-5.6,10.5
		c-3.5,2.7-7.1,4.4-11.3,5.8C264.5,94.4,262.1,95.2,262.1,95.2z"/>
	<path fill="#B4D785" d="M262.2,95.5c-0.1,0-1.4-7-1.4-7.4c-0.7-3.3-1.8-6.9-3.8-9.7c-1.9-2.6-4.7-3.6-7.9-3.4
		c-2.7,0.2-5.2,1-7.9,1.5c0,0-6.2,1.1-6.2,1.1s-0.5,0.9-0.5,0.9c0.4,2.5,0.4,5.1,0.8,7.7c0.3,1.7,0.8,3.3,1.6,4.7
		c2.1,3.8,6,5.6,10.2,6.1c4.4,0.5,8.4,0.1,12.7-0.9C259.8,96,262.2,95.5,262.2,95.5z"/>
	<path fill="#B4D785" d="M262.5,132.8c0.1,0-0.4-7.1-0.4-7.6c-0.1-3.4,0-7.2,1.3-10.3c1.2-3,3.7-4.6,6.8-5.2c2.7-0.5,5.3-0.3,8-0.5
		c0,0,6.3-0.4,6.3-0.4s0.7,0.7,0.7,0.7c0.2,2.6,0.9,5.1,1.1,7.6c0.1,1.7,0.1,3.4-0.4,5c-1.1,4.2-4.5,6.9-8.4,8.4
		c-4.2,1.6-8.1,2.1-12.5,2.2C265,132.7,262.5,132.8,262.5,132.8z"/>
	<path fill="#B4D785" d="M262.6,133c-0.1,0,0.7-7.1,0.8-7.5c0.3-3.4,0.3-7.2-0.8-10.4c-1-3.1-3.5-4.8-6.5-5.6
		c-2.7-0.6-5.3-0.5-8-0.9c0,0-6.3-0.7-6.3-0.7s-0.8,0.7-0.8,0.7c-0.4,2.5-1.1,5-1.4,7.6c-0.2,1.7-0.2,3.4,0.1,5
		c0.9,4.2,4.1,7.1,8,8.8c4.1,1.8,8,2.5,12.4,2.8C260.1,132.9,262.6,133,262.6,133z"/>
	<path fill="#B4D785" d="M250.8,173.7c0.1,0,2-6.9,2.1-7.3c1-3.2,2.4-6.8,4.6-9.3c2.1-2.5,5-3.2,8.1-2.7c2.7,0.4,5.1,1.5,7.7,2.2
		c0,0,6.1,1.7,6.1,1.7s0.5,0.9,0.5,0.9c-0.6,2.5-0.9,5.1-1.5,7.5c-0.4,1.6-1.1,3.2-2,4.6c-2.4,3.6-6.5,5.1-10.7,5.2
		c-4.4,0.1-8.4-0.6-12.6-2C253.2,174.5,250.8,173.7,250.8,173.7z"/>
	<path fill="#B4D785" d="M250.7,174c-0.1,0,3-6.5,3.2-6.9c1.4-3.1,2.6-6.7,2.7-10.1c0-3.2-1.7-5.7-4.4-7.4c-2.3-1.5-4.8-2.3-7.3-3.4
		c0,0-5.7-2.7-5.7-2.7s-0.9,0.4-0.9,0.4c-1.2,2.3-2.7,4.4-3.8,6.7c-0.8,1.5-1.3,3.1-1.5,4.8c-0.5,4.3,1.6,8.1,4.7,10.9
		c3.3,3,6.7,5,10.8,6.8C248.5,173,250.7,174,250.7,174z"/>
	<path fill="#B4D785" d="M221.8,206.6c0.1,0,4.6-5.4,4.9-5.8c2.2-2.5,5-5.2,8.1-6.6c2.9-1.4,5.9-0.8,8.5,0.9
		c2.3,1.5,4.1,3.5,6.1,5.2c0,0,4.8,4,4.8,4s0,1,0,1c-1.6,2-2.9,4.3-4.5,6.3c-1,1.3-2.3,2.5-3.7,3.4c-3.7,2.3-8,1.9-11.9,0.3
		c-4.1-1.7-7.4-4-10.6-7C223.6,208.3,221.8,206.6,221.8,206.6z"/>
	<path fill="#B4D785" d="M221.6,206.8c0-0.1,5.4-4.6,5.7-4.9c2.5-2.2,5.2-5,6.6-8.1c1.4-2.9,0.8-5.9-0.9-8.5
		c-1.5-2.3-3.5-4.1-5.2-6.1c0,0-4-4.8-4-4.8s-1,0-1,0c-2,1.6-4.3,2.9-6.3,4.5c-1.3,1-2.5,2.3-3.3,3.7c-2.2,3.7-1.9,8-0.3,11.9
		c1.7,4.1,4.1,7.3,7,10.6C219.9,205,221.6,206.8,221.6,206.8z"/>
	<path fill="#B4D785" d="M180.1,229.8c0,0.1,6.3-3.4,6.6-3.6c3-1.6,6.5-3.1,9.9-3.3c3.2-0.2,5.8,1.3,7.6,3.9c1.6,2.2,2.6,4.7,3.9,7
		c0,0,3.1,5.5,3.1,5.5s-0.3,1-0.3,1c-2.2,1.3-4.2,3-6.4,4.2c-1.4,0.8-3,1.5-4.7,1.8c-4.3,0.8-8.1-1-11.2-4
		c-3.2-3.1-5.4-6.4-7.4-10.3C181.2,232.1,180.1,229.8,180.1,229.8z"/>
	<path fill="#B4D785" d="M179.8,230c0-0.1,6.7-2.4,7.1-2.5c3.1-1.2,6.6-2.8,9-5.2c2.3-2.3,2.8-5.2,2.2-8.3c-0.6-2.7-1.8-5-2.7-7.6
		c0,0-2-6-2-6s-0.9-0.4-0.9-0.4c-2.4,0.8-5,1.2-7.4,2c-1.6,0.5-3.1,1.2-4.5,2.3c-3.4,2.7-4.6,6.8-4.5,11c0.2,4.4,1.2,8.3,2.8,12.4
		C178.9,227.7,179.8,230,179.8,230z"/>
</g>
<g>
	<line fill="none" stroke="#2BB673" stroke-miterlimit="10" x1="191.3" y1="238.1" x2="235.2" y2="223.9"/>
	<line fill="none" stroke="#2BB673" stroke-miterlimit="10" x1="213.8" y1="230.8" x2="217.2" y2="238.1"/>
	<line fill="none" stroke="#2BB673" stroke-miterlimit="10" x1="217.2" y1="238.1" x2="222.6" y2="240.5"/>
	<line fill="none" stroke="#2BB673" stroke-miterlimit="10" x1="217.2" y1="238.1" x2="213.8" y2="244.7"/>
	<line fill="none" stroke="#2BB673" stroke-miterlimit="10" x1="217.2" y1="238.1" x2="211.3" y2="240.8"/>
	<line fill="none" stroke="#2BB673" stroke-miterlimit="10" x1="209" y1="232.2" x2="211.4" y2="225.4"/>
	<line fill="none" stroke="#2BB673" stroke-miterlimit="10" x1="211.4" y1="225.4" x2="210.1" y2="219.8"/>
	<line fill="none" stroke="#2BB673" stroke-miterlimit="10" x1="211.4" y1="225.4" x2="219.7" y2="223.9"/>
	<line fill="none" stroke="#2BB673" stroke-miterlimit="10" x1="214.6" y1="224.8" x2="216.8" y2="220.9"/>
	<line fill="none" stroke="#2BB673" stroke-miterlimit="10" x1="227.5" y1="226.4" x2="231.5" y2="228.9"/>
	<line fill="none" stroke="#2BB673" stroke-miterlimit="10" x1="227.5" y1="226.4" x2="229.5" y2="220.9"/>
	<line fill="none" stroke="#2BB673" stroke-miterlimit="10" x1="192.8" y1="237.6" x2="199.5" y2="226.1"/>
	<line fill="none" stroke="#2BB673" stroke-miterlimit="10" x1="199.5" y1="226.1" x2="202.3" y2="225.8"/>
	<line fill="none" stroke="#2BB673" stroke-miterlimit="10" x1="199.5" y1="226.1" x2="202.3" y2="221.9"/>
	<ellipse transform="matrix(0.591 -0.8067 0.8067 0.591 -94.0387 254.5212)" fill="#8A77B7" cx="204" cy="220" rx="3" ry="1.8"/>
	<ellipse transform="matrix(0.9481 -0.3178 0.3178 0.9481 -60.8958 76.7049)" fill="#8A77B7" cx="204.6" cy="225" rx="3" ry="1.8"/>
	
		<ellipse transform="matrix(-0.2693 -0.9631 0.9631 -0.2693 56.4639 477.9552)" fill="#8A77B7" cx="209.5" cy="217.6" rx="3" ry="1.8"/>
	
		<ellipse transform="matrix(0.827 -0.5622 0.5622 0.827 -99.9273 159.6439)" fill="#8A77B7" cx="209.4" cy="242.2" rx="3" ry="1.8"/>
	
		<ellipse transform="matrix(0.4836 -0.8753 0.8753 0.4836 -106.3971 313.6559)" fill="#8A77B7" cx="212.6" cy="247" rx="3" ry="1.8"/>
	<ellipse transform="matrix(0.5187 -0.855 0.855 0.5187 -82.3135 291.709)" fill="#8A77B7" cx="217.9" cy="219" rx="3" ry="1.8"/>
	<ellipse transform="matrix(0.9734 -0.229 0.229 0.9734 -45.2164 56.738)" fill="#8A77B7" cx="221.9" cy="223.2" rx="3" ry="1.8"/>
	
		<ellipse transform="matrix(0.923 0.3848 -0.3848 0.923 110.2055 -67.8668)" fill="#8A77B7" cx="224.7" cy="241.5" rx="3" ry="1.8"/>
	
		<ellipse transform="matrix(0.3305 -0.9438 0.9438 0.3305 -51.9944 363.6186)" fill="#8A77B7" cx="230.3" cy="218.5" rx="3" ry="1.8"/>
	
		<ellipse transform="matrix(-0.8365 -0.548 0.548 -0.8365 302.306 550.6102)" fill="#8A77B7" cx="233.3" cy="230.2" rx="3" ry="1.8"/>
	<ellipse transform="matrix(0.9336 -0.3583 0.3583 0.9336 -64.1486 99.8422)" fill="#8A77B7" cx="237.3" cy="223" rx="3" ry="1.8"/>
</g>
<g>
	<line fill="none" stroke="#2BB673" stroke-miterlimit="10" x1="55.9" y1="196.8" x2="34" y2="142.2"/>
	<line fill="none" stroke="#2BB673" stroke-miterlimit="10" x1="44.6" y1="168.8" x2="53" y2="162.3"/>
	<line fill="none" stroke="#2BB673" stroke-miterlimit="10" x1="53" y1="162.3" x2="55.2" y2="154.4"/>
	<line fill="none" stroke="#2BB673" stroke-miterlimit="10" x1="53" y1="162.3" x2="61.3" y2="165"/>
	<line fill="none" stroke="#2BB673" stroke-miterlimit="10" x1="53" y1="162.3" x2="56.9" y2="169.3"/>
	<line fill="none" stroke="#2BB673" stroke-miterlimit="10" x1="46.8" y1="174.7" x2="38.4" y2="173.4"/>
	<line fill="none" stroke="#2BB673" stroke-miterlimit="10" x1="38.4" y1="173.4" x2="31.7" y2="176.8"/>
	<line fill="none" stroke="#2BB673" stroke-miterlimit="10" x1="38.4" y1="173.4" x2="35.6" y2="162.8"/>
	<line fill="none" stroke="#2BB673" stroke-miterlimit="10" x1="37.3" y1="169.4" x2="32.4" y2="167.4"/>
	<line fill="none" stroke="#2BB673" stroke-miterlimit="10" x1="37.8" y1="151.6" x2="40.4" y2="145.7"/>
	<line fill="none" stroke="#2BB673" stroke-miterlimit="10" x1="37.8" y1="151.6" x2="30.9" y2="150.6"/>
	<line fill="none" stroke="#2BB673" stroke-miterlimit="10" x1="55" y1="194.9" x2="40.6" y2="189.1"/>
	<line fill="none" stroke="#2BB673" stroke-miterlimit="10" x1="40.6" y1="189.1" x2="39.8" y2="185.4"/>
	<line fill="none" stroke="#2BB673" stroke-miterlimit="10" x1="40.6" y1="189.1" x2="35.2" y2="186.5"/>
	<path fill="#8A77B7" d="M29.6,183.1c0.6-1.2,2.5-1.5,4.3-0.5c1.7,0.9,2.6,2.7,2,4c-0.6,1.2-2.5,1.5-4.3,0.5S28.9,184.4,29.6,183.1z
		"/>
	<path fill="#8A77B7" d="M37.1,179c1.1-0.7,2.6,0.4,3.5,2.3c0.8,2,0.6,4.1-0.5,4.8c-1.1,0.7-2.6-0.4-3.5-2.3
		C35.8,181.9,36,179.7,37.1,179z"/>
	<path fill="#8A77B7" d="M25.7,180c-0.4-1.2,0.8-3,2.6-4.1c1.9-1,3.8-0.9,4.2,0.3s-0.8,3-2.6,4.1C28,181.3,26.2,181.2,25.7,180z"/>
	<path fill="#8A77B7" d="M56.4,168.6c0.9-1,2.7-0.5,4,1.1c1.3,1.6,1.6,3.7,0.6,4.6c-0.9,1-2.7,0.5-4-1.1S55.5,169.6,56.4,168.6z"/>
	<path fill="#8A77B7" d="M60.8,164.7c0.5-1.3,2.4-1.8,4.2-1.1c1.8,0.7,3,2.3,2.5,3.6s-2.4,1.8-4.2,1.1
		C61.4,167.5,60.3,165.9,60.8,164.7z"/>
	<path fill="#8A77B7" d="M26.6,165.1c0.5-1.3,2.4-1.7,4.2-0.9c1.8,0.8,2.9,2.4,2.3,3.7c-0.5,1.3-2.4,1.7-4.2,0.9
		S26.1,166.4,26.6,165.1z"/>
	<path fill="#8A77B7" d="M33.4,156.4c1.1-0.6,2.6,0.6,3.2,2.7c0.6,2.1,0.2,4.2-0.9,4.8c-1.1,0.6-2.6-0.6-3.2-2.7
		C31.8,159.1,32.2,156.9,33.4,156.4z"/>
	<path fill="#8A77B7" d="M57.3,147.2c1.1,0.3,1.6,2.3,1,4.5s-2,3.8-3.2,3.6c-1.1-0.3-1.6-2.3-1-4.5S56.1,147,57.3,147.2z"/>
	<path fill="#8A77B7" d="M24.4,149.6c0.3-1.3,2.1-2.2,4.1-1.9s3.3,1.6,3,3s-2.1,2.2-4.1,1.9C25.4,152.2,24.1,150.9,24.4,149.6z"/>
	<path fill="#8A77B7" d="M40,146.7c-1.1-0.5-1.2-2.6-0.2-4.7c0.9-2.1,2.6-3.4,3.6-2.9c1.1,0.5,1.2,2.6,0.2,4.7
		C42.7,145.9,41,147.2,40,146.7z"/>
	<path fill="#8A77B7" d="M31,136.1c1.1-0.7,2.7,0.2,3.6,2.2c0.9,1.9,0.7,4.1-0.3,4.8c-1.1,0.7-2.7-0.2-3.6-2.2
		C29.8,139,29.9,136.8,31,136.1z"/>
</g>
<g>
	<line fill="none" stroke="#2BB673" stroke-miterlimit="10" x1="259.3" y1="93.4" x2="287.8" y2="37.3"/>
	<line fill="none" stroke="#2BB673" stroke-miterlimit="10" x1="273.9" y1="64.6" x2="282.8" y2="69.7"/>
	<line fill="none" stroke="#2BB673" stroke-miterlimit="10" x1="282.8" y1="69.7" x2="289.6" y2="67.3"/>
	<line fill="none" stroke="#2BB673" stroke-miterlimit="10" x1="282.8" y1="69.7" x2="285" y2="80.1"/>
	<line fill="none" stroke="#2BB673" stroke-miterlimit="10" x1="282.8" y1="69.7" x2="279.7" y2="78"/>
	<line fill="none" stroke="#2BB673" stroke-miterlimit="10" x1="270.7" y1="70.5" x2="267.5" y2="60.8"/>
	<line fill="none" stroke="#2BB673" stroke-miterlimit="10" x1="267.5" y1="60.8" x2="261.7" y2="55.7"/>
	<line fill="none" stroke="#2BB673" stroke-miterlimit="10" x1="267.5" y1="60.8" x2="273.7" y2="51.4"/>
	<line fill="none" stroke="#2BB673" stroke-miterlimit="10" x1="269.8" y1="57.2" x2="268.8" y2="50.8"/>
	<line fill="none" stroke="#2BB673" stroke-miterlimit="10" x1="282.8" y1="47.1" x2="288.4" y2="46.2"/>
	<line fill="none" stroke="#2BB673" stroke-miterlimit="10" x1="282.8" y1="47.1" x2="280.2" y2="39.1"/>
	<line fill="none" stroke="#2BB673" stroke-miterlimit="10" x1="260.2" y1="91.4" x2="257.2" y2="72.5"/>
	<line fill="none" stroke="#2BB673" stroke-miterlimit="10" x1="257.2" y1="72.5" x2="259.5" y2="69.5"/>
	<line fill="none" stroke="#2BB673" stroke-miterlimit="10" x1="257.2" y1="72.5" x2="256.4" y2="65.2"/>
	<path fill="#8A77B7" d="M256,57.2c1.2-0.1,2.3,1.8,2.5,4.2s-0.6,4.4-1.8,4.5c-1.2,0.1-2.3-1.8-2.5-4.2
		C254,59.3,254.9,57.3,256,57.2z"/>
	<path fill="#8A77B7" d="M262.8,62.8c1,0.8,1.1,3,0,5.1c-1,2-2.7,3.1-3.7,2.3c-1-0.8-1.1-3,0-5.1C260.1,63.1,261.7,62,262.8,62.8z"
		/>
	<path fill="#8A77B7" d="M256.4,51.2c0.7-1.2,2.6-1,4.3,0.4c1.7,1.4,2.5,3.5,1.9,4.6c-0.7,1.2-2.6,1-4.3-0.4
		C256.6,54.5,255.8,52.4,256.4,51.2z"/>
	<path fill="#8A77B7" d="M279.9,77.1c1.2,0.4,1.7,2.6,1.2,4.9c-0.5,2.3-1.9,3.9-3,3.5c-1.2-0.4-1.7-2.6-1.2-4.9
		C277.4,78.2,278.8,76.7,279.9,77.1z"/>
	<path fill="#8A77B7" d="M285,79.4c1.2-0.3,2.5,1.4,2.9,3.8c0.4,2.4-0.2,4.5-1.3,4.8s-2.5-1.4-2.9-3.8S283.8,79.7,285,79.4z"/>
	<path fill="#8A77B7" d="M267.5,43.3c1.2-0.2,2.4,1.6,2.8,4c0.4,2.4-0.3,4.5-1.5,4.7c-1.2,0.2-2.4-1.6-2.8-4S266.4,43.5,267.5,43.3z
		"/>
	<path fill="#8A77B7" d="M277.2,45.2c1,0.9,0.8,3.1-0.3,5.1s-2.9,2.8-3.9,1.9c-1-0.9-0.8-3.1,0.3-5.1S276.3,44.4,277.2,45.2z"/>
	<path fill="#8A77B7" d="M295.7,65.2c0.4,1.4-0.9,3.1-2.8,3.8c-1.9,0.7-3.8,0.2-4.2-1.2c-0.4-1.4,0.9-3.1,2.8-3.8
		C293.5,63.3,295.3,63.8,295.7,65.2z"/>
	<path fill="#8A77B7" d="M277.7,31.6c1.1-0.5,2.6,0.9,3.4,3.2c0.8,2.3,0.5,4.5-0.6,5c-1.1,0.5-2.6-0.9-3.4-3.2
		C276.2,34.3,276.5,32.1,277.7,31.6z"/>
	<path fill="#8A77B7" d="M287.5,46.5c-0.2-1.4,1.3-2.8,3.3-3.1c2-0.3,3.8,0.7,3.9,2.1s-1.3,2.8-3.3,3.1
		C289.4,48.9,287.6,47.9,287.5,46.5z"/>
	<path fill="#8A77B7" d="M290.7,30.5c1.1,0.7,1.2,3,0.2,5.1c-0.9,2.1-2.6,3.2-3.6,2.5c-1.1-0.7-1.2-3-0.2-5.1
		C288,30.9,289.6,29.8,290.7,30.5z"/>
</g>
<line fill="none" stroke="#2BB673" stroke-miterlimit="10" x1="51.6" y1="196.8" x2="46.5" y2="197.9"/>
<line fill="none" stroke="#2BB673" stroke-miterlimit="10" x1="36.9" y1="188.8" x2="36.8" y2="184.7"/>
<line fill="none" stroke="#2BB673" stroke-miterlimit="10" x1="26.4" y1="183" x2="23.4" y2="178.9"/>
<line fill="none" stroke="#2BB673" stroke-miterlimit="10" x1="28.2" y1="184" x2="23.9" y2="185.4"/>
<path fill="#E3A6CB" d="M42.2,176.8c1.4-1.4,1.9-3.2,1-4.1c-0.6-0.6-1.6-0.6-2.7-0.1c-0.1-0.9-0.4-1.7-1.1-1.9
	c-0.7-0.3-1.6,0-2.4,0.8c-0.4-0.5-1-0.8-1.5-0.8c-0.8,0-1.4,0.7-1.8,1.6c-0.7-0.3-1.4-0.4-1.9-0.1c-1.1,0.6-1.2,2.5-0.2,4.2
	c1,1.7,2.7,2.5,3.8,1.9c0.2-0.1,0.4-0.3,0.5-0.6c0.3,0,0.6-0.2,0.8-0.4c0.3,0.1,0.6,0.1,0.9,0c0.1,0.2,0.2,0.3,0.3,0.4
	C38.9,178.6,40.8,178.2,42.2,176.8z"/>
<g>
	<path fill="#2BB673" d="M32.6,180.5c-1.1-1.9-0.2-3.5,2-3.5l4.4,0c2.2,0,3.1,1.6,2,3.5l-2.2,3.8c-1.1,1.9-2.9,1.9-4,0L32.6,180.5z"
		/>
</g>
<path fill="#E3A6CB" d="M9.4,167.9c-0.4-2-1.8-3.3-3-3.1c-0.8,0.2-1.4,1.1-1.5,2.3c-0.8-0.4-1.6-0.5-2.2-0.1
	c-0.6,0.5-0.8,1.4-0.6,2.4c-0.7,0.1-1.2,0.4-1.5,0.9c-0.4,0.7-0.2,1.6,0.4,2.4c-0.6,0.4-1,1-1.1,1.6c0,1.3,1.5,2.3,3.5,2.4
	c2,0,3.6-1,3.6-2.2c0-0.3-0.1-0.5-0.2-0.8c0.1-0.3,0.2-0.6,0.1-0.9c0.2-0.2,0.4-0.5,0.4-0.8c0.2,0,0.3,0,0.5,0
	C9.2,171.7,9.8,169.8,9.4,167.9z"/>
<g>
	<path fill="#2BB673" d="M7.1,171c0.9-2,2.7-2.2,4.1-0.4l2.3,3.1c1.3,1.8,0.6,3.3-1.6,3.5L8,177.4c-2.2,0.2-3.2-1.4-2.3-3.4L7.1,171
		z"/>
</g>
<path fill="#E3A6CB" d="M27.1,171c1.2-1.6,1.3-3.4,0.3-4.1c-0.7-0.5-1.7-0.3-2.6,0.3c-0.2-0.9-0.7-1.5-1.4-1.7
	c-0.7-0.2-1.5,0.3-2.1,1.1c-0.5-0.4-1-0.7-1.6-0.5c-0.7,0.2-1.2,0.9-1.4,1.8c-0.7-0.2-1.4-0.2-1.8,0.2c-0.9,0.8-0.7,2.6,0.5,4.1
	c1.2,1.5,3,2,3.9,1.3c0.2-0.2,0.3-0.4,0.4-0.6c0.3-0.1,0.5-0.3,0.7-0.5c0.3,0,0.6,0,0.8-0.2c0.1,0.1,0.2,0.3,0.3,0.4
	C24.3,173.2,26,172.5,27.1,171z"/>
<g>
	<path fill="#2BB673" d="M18.9,176.5c-1.5-1.6-1-3.3,1.1-3.8l4.3-1c2.1-0.5,3.4,0.8,2.8,2.9l-1.3,4.2c-0.6,2.1-2.4,2.5-3.9,0.9
		L18.9,176.5z"/>
</g>
<path fill="#E3A6CB" d="M15,181.4c-1.8-1.3-3.9-1.4-4.7-0.3c-0.6,0.8-0.4,1.9,0.4,3c-1,0.3-1.8,0.8-1.9,1.6
	c-0.2,0.8,0.3,1.7,1.3,2.4c-0.5,0.6-0.7,1.2-0.6,1.8c0.2,0.8,1,1.4,2.1,1.6c-0.3,0.8-0.2,1.6,0.2,2.1c0.9,1.1,3,0.8,4.7-0.7
	c1.7-1.4,2.4-3.4,1.5-4.5c-0.2-0.2-0.4-0.4-0.7-0.5c-0.1-0.3-0.3-0.6-0.6-0.8c0-0.3,0-0.6-0.2-1c0.2-0.1,0.3-0.2,0.4-0.4
	C17.5,184.6,16.8,182.6,15,181.4z"/>
<g>
	<path fill="#2BB673" d="M20.6,190.6c-1.6,1.5-3.3,0.9-3.8-1.3l-0.9-4.3c-0.4-2.2,0.9-3.4,3-2.7l4.2,1.4c2.1,0.7,2.5,2.4,0.8,3.9
		L20.6,190.6z"/>
</g>
<path fill="#E3A6CB" d="M39.8,193.9c-1.6-1.2-3.6-1.3-4.3-0.2c-0.5,0.7-0.3,1.7,0.3,2.7c-0.9,0.2-1.6,0.8-1.8,1.5
	c-0.2,0.8,0.3,1.6,1.1,2.2c-0.5,0.5-0.7,1.1-0.6,1.7c0.2,0.7,0.9,1.3,1.9,1.5c-0.2,0.7-0.2,1.4,0.2,1.9c0.8,1,2.7,0.7,4.3-0.6
	c1.6-1.3,2.2-3.2,1.3-4.1c-0.2-0.2-0.4-0.3-0.7-0.4c-0.1-0.3-0.3-0.6-0.5-0.8c0-0.3,0-0.6-0.2-0.9c0.1-0.1,0.3-0.2,0.4-0.4
	C42.2,196.8,41.5,195.1,39.8,193.9z"/>
<g>
	<path fill="#2BB673" d="M45.3,202.1c-1.6,1.5-3.3,0.9-3.8-1.3l-0.7-3.3c-0.4-2.2,0.9-3.4,3-2.7l3.2,1c2.1,0.7,2.5,2.4,0.8,3.9
		L45.3,202.1z"/>
</g>
<g>
	<line fill="none" stroke="#2BB673" stroke-miterlimit="10" x1="188.7" y1="242.2" x2="215.8" y2="205.9"/>
	<line fill="none" stroke="#2BB673" stroke-miterlimit="10" x1="197.2" y1="230.8" x2="196.7" y2="227.4"/>
	<line fill="none" stroke="#2BB673" stroke-miterlimit="10" x1="204.3" y1="221.4" x2="207.5" y2="221.5"/>
	<line fill="none" stroke="#2BB673" stroke-miterlimit="10" x1="209.4" y1="214.6" x2="212.8" y2="212.8"/>
	<line fill="none" stroke="#2BB673" stroke-miterlimit="10" x1="208.5" y1="215.8" x2="207.6" y2="212.8"/>
	<path fill="#E3A6CB" d="M213.4,225.5c1,1,2.4,1.4,3.2,0.9c0.5-0.4,0.5-1.1,0.2-1.8c0.7,0,1.3-0.2,1.6-0.7c0.3-0.5,0.1-1.1-0.5-1.6
		c0.4-0.3,0.7-0.6,0.7-1c0-0.5-0.5-1-1.2-1.3c0.3-0.4,0.4-0.9,0.2-1.3c-0.4-0.8-1.9-0.9-3.3-0.3c-1.4,0.6-2.1,1.7-1.7,2.4
		c0.1,0.2,0.2,0.3,0.4,0.4c0,0.2,0.1,0.4,0.3,0.6c-0.1,0.2-0.1,0.4,0,0.6c-0.1,0-0.2,0.1-0.4,0.2
		C212.2,223.2,212.4,224.4,213.4,225.5z"/>
	<g>
		<path fill="#2BB673" d="M210.2,219.2c2-0.9,3.5,0.2,3.4,2.4l0,0.3c-0.2,2.2-1.9,3.1-3.8,2l-1.2-0.7c-1.9-1.1-1.8-2.7,0.2-3.5
			L210.2,219.2z"/>
	</g>
	<path fill="#E3A6CB" d="M222.1,203.9c1.6-0.2,2.7-1,2.6-1.9c-0.1-0.6-0.8-1-1.7-1.1c0.4-0.5,0.5-1.1,0.2-1.5
		c-0.3-0.4-1.1-0.6-1.9-0.5c0-0.5-0.2-0.8-0.6-1c-0.5-0.3-1.2-0.2-1.9,0.2c-0.3-0.4-0.7-0.7-1.2-0.8c-1-0.1-1.9,0.9-2.1,2.2
		c-0.1,1.3,0.6,2.4,1.6,2.5c0.2,0,0.4,0,0.6-0.1c0.2,0.1,0.5,0.1,0.7,0.1c0.2,0.1,0.4,0.3,0.6,0.3c0,0.1,0,0.2,0,0.3
		C219.1,203.6,220.6,204.1,222.1,203.9z"/>
	<g>
		<path fill="#2BB673" d="M218.9,201.8c2,0.9,2,2.5,0.1,3.6l-0.8,0.5c-1.9,1.1-3.5,0.1-3.5-2.1s1.6-3.2,3.6-2.3L218.9,201.8z"/>
	</g>
	<path fill="#E3A6CB" d="M218.8,215.6c1.2,0.8,2.6,1,3.2,0.4c0.4-0.4,0.3-1.1-0.1-1.7c0.7-0.1,1.2-0.4,1.4-0.8
		c0.2-0.5-0.1-1-0.7-1.5c0.4-0.3,0.6-0.7,0.5-1c-0.1-0.5-0.6-0.9-1.3-1c0.2-0.5,0.2-0.9-0.1-1.2c-0.6-0.7-2-0.6-3.2,0.1
		c-1.2,0.7-1.8,1.9-1.2,2.6c0.1,0.1,0.3,0.2,0.5,0.3c0.1,0.2,0.2,0.4,0.4,0.5c0,0.2,0,0.4,0.1,0.6c-0.1,0.1-0.2,0.1-0.3,0.2
		C217.2,213.6,217.6,214.8,218.8,215.6z"/>
	<g>
		<path fill="#2BB673" d="M214,210.5c1.8-1.3,3.6-0.5,4,1.6l0.1,0.4c0.4,2.2-0.9,3.4-3,2.7l-1.5-0.5c-2.1-0.7-2.3-2.2-0.6-3.5
			L214,210.5z"/>
	</g>
	<path fill="#E3A6CB" d="M211.3,207c1.1-1.1,1.3-2.5,0.5-3.1c-0.6-0.4-1.5-0.3-2.3,0.1c-0.1-0.7-0.6-1.2-1.2-1.4
		c-0.7-0.2-1.4,0.1-2,0.7c-0.4-0.4-0.9-0.6-1.4-0.5c-0.6,0.1-1.1,0.6-1.4,1.3c-0.6-0.2-1.2-0.2-1.6,0.1c-0.9,0.5-0.7,2,0.3,3.2
		c1,1.2,2.6,1.7,3.5,1.2c0.2-0.1,0.3-0.3,0.4-0.5c0.3-0.1,0.5-0.2,0.7-0.4c0.3,0,0.5,0,0.8-0.1c0.1,0.1,0.2,0.2,0.3,0.3
		C208.6,208.6,210.2,208.2,211.3,207z"/>
	<g>
		<path fill="#2BB673" d="M204.5,211.2c-1.5-1.6-0.9-3.2,1.3-3.4l1.7-0.2c2.2-0.3,3.2,1.2,2.3,3.1l-0.2,0.5c-0.9,2-2.9,2.3-4.4,0.7
			L204.5,211.2z"/>
	</g>
	<path fill="#E3A6CB" d="M200.1,223.1c1-1,1.2-2.3,0.4-2.9c-0.5-0.4-1.3-0.3-2.1,0.1c-0.1-0.6-0.5-1.1-1.1-1.3
		c-0.6-0.2-1.3,0.1-1.8,0.7c-0.4-0.3-0.8-0.5-1.3-0.4c-0.6,0.1-1,0.6-1.2,1.2c-0.6-0.2-1.1-0.2-1.5,0.1c-0.8,0.5-0.7,1.8,0.3,2.9
		c0.9,1.1,2.4,1.6,3.2,1.1c0.2-0.1,0.3-0.3,0.4-0.4c0.2,0,0.5-0.2,0.6-0.3c0.2,0,0.5,0,0.7-0.1c0.1,0.1,0.2,0.2,0.3,0.3
		C197.7,224.6,199.1,224.2,200.1,223.1z"/>
	<g>
		<path fill="#2BB673" d="M194.2,227.2c-1.5-1.6-0.9-3.2,1.3-3.4l0.9-0.1c2.2-0.3,3.2,1.1,2.3,3.1s-2.9,2.2-4.4,0.6L194.2,227.2z"/>
	</g>
</g>
<g>
	<line fill="none" stroke="#2BB673" stroke-miterlimit="10" x1="262.5" y1="105.8" x2="253.8" y2="42.2"/>
	<line fill="none" stroke="#2BB673" stroke-miterlimit="10" x1="259.8" y1="85.9" x2="255.9" y2="82.4"/>
	<line fill="none" stroke="#2BB673" stroke-miterlimit="10" x1="257.5" y1="69.3" x2="260.7" y2="66.8"/>
	<line fill="none" stroke="#2BB673" stroke-miterlimit="10" x1="255.9" y1="57.4" x2="257.4" y2="52.5"/>
	<line fill="none" stroke="#2BB673" stroke-miterlimit="10" x1="256.1" y1="59.5" x2="252.4" y2="56.8"/>
	<path fill="#E3A6CB" d="M270.3,66.4c2,0.3,3.7-0.4,3.9-1.6c0.1-0.8-0.5-1.7-1.5-2.2c0.7-0.6,1.1-1.3,0.9-2c-0.2-0.8-1-1.3-2-1.4
		c0.2-0.7,0.1-1.3-0.3-1.7c-0.5-0.6-1.4-0.7-2.3-0.5c-0.1-0.7-0.5-1.3-1.1-1.6c-1.2-0.5-2.7,0.6-3.5,2.4c-0.8,1.8-0.5,3.7,0.7,4.2
		c0.2,0.1,0.5,0.1,0.8,0.1c0.2,0.2,0.5,0.4,0.8,0.4c0.1,0.3,0.3,0.5,0.6,0.7c-0.1,0.2-0.2,0.3-0.2,0.5
		C266.8,64.9,268.3,66.1,270.3,66.4z"/>
	<g>
		<path fill="#2BB673" d="M261.6,60.9c0.9-2,2.7-2.2,4-0.4l2.6,3.6c1.3,1.8,0.6,3.4-1.6,3.7l-4.4,0.5c-2.2,0.3-3.3-1.2-2.4-3.2
			L261.6,60.9z"/>
	</g>
	<path fill="#E3A6CB" d="M257.9,34.7c1.3-1.5,1.6-3.4,0.7-4.2c-0.6-0.5-1.7-0.4-2.7,0.1c-0.1-0.9-0.6-1.6-1.3-1.8
		c-0.8-0.2-1.6,0.2-2.3,1c-0.5-0.5-1-0.7-1.6-0.6c-0.8,0.1-1.3,0.8-1.6,1.8c-0.7-0.3-1.4-0.3-1.9,0.1c-1,0.7-1,2.6,0.2,4.2
		c1.1,1.6,2.9,2.3,3.9,1.6c0.2-0.2,0.4-0.4,0.5-0.6c0.3-0.1,0.6-0.2,0.8-0.5c0.3,0,0.6,0,0.9-0.1c0.1,0.2,0.2,0.3,0.3,0.4
		C254.7,36.9,256.6,36.3,257.9,34.7z"/>
	<g>
		<path fill="#2BB673" d="M254.1,34.8c2.2-0.4,3.4,0.9,2.7,3l-1.1,3.7c-0.6,2.1-2.3,2.5-3.8,0.8l-2.5-2.9c-1.4-1.7-0.8-3.4,1.3-3.9
			L254.1,34.8z"/>
	</g>
	<path fill="#E3A6CB" d="M266,50.9c1.9,0,3.5-1,3.5-2.2c0-0.8-0.7-1.5-1.8-1.9c0.6-0.7,0.8-1.5,0.5-2.1c-0.3-0.7-1.1-1.1-2.1-1.1
		c0.1-0.7-0.1-1.2-0.5-1.6c-0.6-0.5-1.4-0.5-2.3-0.1c-0.2-0.7-0.7-1.2-1.3-1.3c-1.2-0.3-2.5,1-3,2.8c-0.5,1.9,0.1,3.6,1.3,3.9
		c0.2,0.1,0.5,0,0.8,0c0.2,0.2,0.5,0.3,0.9,0.3c0.2,0.2,0.4,0.4,0.6,0.6c-0.1,0.2-0.1,0.3-0.1,0.5C262.5,49.9,264.1,50.9,266,50.9z"
		/>
	<g>
		<path fill="#2BB673" d="M256.6,47.6c0.4-2.2,2.1-2.8,3.8-1.4l3.4,2.9c1.7,1.4,1.4,3.2-0.7,4l-4.2,1.5c-2.1,0.8-3.4-0.4-3.1-2.6
			L256.6,47.6z"/>
	</g>
	<path fill="#E3A6CB" d="M250.4,47.3c0-2.2-1.2-4-2.6-3.9c-0.9,0-1.7,0.8-2.2,2c-0.8-0.7-1.7-0.9-2.4-0.6c-0.8,0.3-1.2,1.3-1.2,2.4
		c-0.8-0.1-1.4,0.1-1.8,0.6c-0.5,0.6-0.5,1.6-0.1,2.6c-0.8,0.3-1.4,0.8-1.5,1.4c-0.3,1.3,1.2,2.9,3.3,3.4c2.2,0.5,4.2-0.2,4.5-1.5
		c0.1-0.3,0-0.6,0-0.9c0.2-0.3,0.3-0.6,0.3-1c0.3-0.2,0.5-0.4,0.7-0.7c0.2,0.1,0.4,0.1,0.6,0.1C249.3,51.3,250.4,49.5,250.4,47.3z"
		/>
	<g>
		<path fill="#2BB673" d="M246.4,57.3c-2.2-0.4-2.7-2.2-1.2-3.8l3-3.3c1.5-1.6,3.2-1.3,3.9,0.8l1.4,4.2c0.7,2.1-0.5,3.4-2.7,3
			L246.4,57.3z"/>
	</g>
	<path fill="#E3A6CB" d="M255.1,74.7c0-2-1.1-3.6-2.4-3.6c-0.9,0-1.6,0.8-2,1.9c-0.7-0.6-1.6-0.8-2.2-0.6c-0.7,0.3-1.1,1.2-1.1,2.2
		c-0.7-0.1-1.3,0.1-1.7,0.5c-0.5,0.6-0.5,1.5,0,2.4c-0.7,0.3-1.3,0.7-1.4,1.3c-0.3,1.2,1.1,2.6,3,3.1c2,0.5,3.8-0.1,4.1-1.4
		c0.1-0.3,0-0.5,0-0.8c0.2-0.3,0.3-0.6,0.3-0.9c0.3-0.2,0.5-0.4,0.6-0.7c0.2,0.1,0.3,0.1,0.5,0.1C254.1,78.4,255.1,76.7,255.1,74.7z
		"/>
	<g>
		<path fill="#2BB673" d="M251.7,84c-2.2-0.4-2.7-2.2-1.2-3.8l2.3-2.5c1.5-1.6,3.2-1.3,3.9,0.8l1.1,3.2c0.7,2.1-0.5,3.4-2.7,3
			L251.7,84z"/>
	</g>
</g>
<g>
	<g>
		<g>
			<path fill="#F8A8A2" d="M50.6,191.3c-1.3,4.8-5.2,5.8-8.7,2.3c-3.5-3.5-2.4-7.4,2.4-8.6C49.1,183.7,51.9,186.5,50.6,191.3z"/>
		</g>
		<g>
			<path fill="#F8A8A2" d="M49.7,192.8c0.8-4.9,4.6-6.3,8.4-3.2s3.2,7.1-1.4,8.8C52.1,200.2,49,197.7,49.7,192.8z"/>
		</g>
		<g>
			<path fill="#F8A8A2" d="M55.2,181.7c-0.7,4.9-4.4,6.4-8.3,3.3s-3.3-7,1.3-8.9S55.8,176.9,55.2,181.7z"/>
		</g>
		<g>
			<path fill="#F8A8A2" d="M57.5,189.7c4.6,1.7,7.7-0.9,6.9-5.7c-0.8-4.9-4.6-6.2-8.4-3.1C52.2,184,52.9,188,57.5,189.7z"/>
		</g>
	</g>
	
		<ellipse transform="matrix(0.9632 -0.2686 0.2686 0.9632 -48.3967 20.9437)" fill="#FCE0E6" cx="52.3" cy="187.3" rx="2.9" ry="2.8"/>
</g>
<g>
	<g>
		<g>
			<path fill="#F8A8A2" d="M185.7,239.1c-1.3,4.8-5.2,5.8-8.7,2.3c-3.5-3.5-2.4-7.4,2.4-8.6C184.2,231.5,187,234.4,185.7,239.1z"/>
		</g>
		<g>
			<path fill="#F8A8A2" d="M184.9,240.7c0.8-4.9,4.6-6.3,8.4-3.2c3.8,3.1,3.2,7.1-1.4,8.8C187.2,248.1,184.1,245.5,184.9,240.7z"/>
		</g>
		<g>
			<path fill="#F8A8A2" d="M190.3,229.6c-0.7,4.9-4.4,6.4-8.3,3.3s-3.3-7,1.3-8.9C187.8,222.2,191,224.7,190.3,229.6z"/>
		</g>
		<g>
			<path fill="#F8A8A2" d="M192.6,237.5c4.6,1.7,7.7-0.9,6.9-5.7c-0.8-4.9-4.6-6.2-8.4-3.1C187.3,231.9,188,235.8,192.6,237.5z"/>
		</g>
	</g>
	
		<ellipse transform="matrix(0.9632 -0.2686 0.2686 0.9632 -56.2814 58.9969)" fill="#FCE0E6" cx="187.4" cy="235.2" rx="2.9" ry="2.8"/>
</g>
<g>
	<g>
		<g>
			<path fill="#F8A8A2" d="M260.5,99.2c-1.3,4.8-5.2,5.8-8.7,2.3c-3.5-3.5-2.4-7.4,2.4-8.6C259,91.6,261.8,94.5,260.5,99.2z"/>
		</g>
		<g>
			<path fill="#F8A8A2" d="M259.7,100.8c0.8-4.9,4.6-6.3,8.4-3.2c3.8,3.1,3.2,7.1-1.4,8.8C262,108.2,258.9,105.6,259.7,100.8z"/>
		</g>
		<g>
			<path fill="#F8A8A2" d="M265.1,89.7c-0.7,4.9-4.4,6.4-8.3,3.3c-3.9-3-3.3-7,1.3-8.9S265.8,84.8,265.1,89.7z"/>
		</g>
		<g>
			<path fill="#F8A8A2" d="M267.5,97.6c4.6,1.7,7.7-0.9,6.9-5.7c-0.8-4.9-4.6-6.2-8.4-3.1C262.2,92,262.8,95.9,267.5,97.6z"/>
		</g>
	</g>
	
		<ellipse transform="matrix(0.9632 -0.2686 0.2686 0.9632 -15.9497 73.9526)" fill="#FCE0E6" cx="262.3" cy="95.3" rx="2.9" ry="2.8"/>
</g>
<g>
	<g>
		<g>
			<path fill="#C998C5" d="M28,67.4c-4.1-0.3-5.5-3.3-3.2-6.7c2.3-3.4,5.6-3.1,7.4,0.6C34,65,32.1,67.7,28,67.4z"/>
		</g>
		<g>
			<path fill="#C998C5" d="M26.6,67c4.1-0.1,5.8,2.7,3.9,6.3c-1.9,3.6-5.3,3.7-7.4,0.2C21,70.1,22.6,67.1,26.6,67z"/>
		</g>
		<g>
			<path fill="#C998C5" d="M36.5,69.6c-4.1,0.2-5.9-2.6-4-6.2c1.9-3.6,5.2-3.8,7.4-0.4C42.1,66.5,40.6,69.4,36.5,69.6z"/>
		</g>
		<g>
			<path fill="#C998C5" d="M30.4,72.8c-0.6,4,1.9,6.1,5.7,4.7c3.8-1.5,4.3-4.7,1.2-7.3C34.2,67.6,31.1,68.8,30.4,72.8z"/>
		</g>
	</g>
	<ellipse transform="matrix(0.4477 0.8942 -0.8942 0.4477 78.4103 9.4994)" fill="#F9D8E7" cx="31.5" cy="68.2" rx="2.4" ry="2.3"/>
</g>
<g>
	<g>
		<g>
			<path fill="#839BD0" d="M44.6,69.3c-3.9-3.4-3.1-7.6,1.8-9.3s8.1,1.1,7.2,6.2C52.6,71.3,48.6,72.7,44.6,69.3z"/>
		</g>
		<g>
			<path fill="#839BD0" d="M43.5,67.8c4.3,3,3.9,7.2-0.8,9.4s-8.2-0.2-7.8-5.4C35.4,66.7,39.2,64.8,43.5,67.8z"/>
		</g>
		<g>
			<path fill="#839BD0" d="M51.6,78c-4.3-2.9-4.1-7.1,0.6-9.5s8.2,0,7.9,5.2C59.8,79,56,80.9,51.6,78z"/>
		</g>
		<g>
			<path fill="#839BD0" d="M43,76.7c-3.7,3.6-2.7,7.8,2.4,9.2c5,1.4,8.1-1.6,6.8-6.6C50.8,74.2,46.7,73,43,76.7z"/>
		</g>
	</g>
	<ellipse transform="matrix(-0.172 0.9851 -0.9851 -0.172 127.4745 38.4028)" fill="#E2DFEF" cx="47.6" cy="72.8" rx="3.1" ry="3"/>
</g>
<g>
	<g>
		<g>
			<path fill="#F8A8A2" d="M40.8,61c-3,0.6-4.6-1.3-3.7-4.2c1-2.9,3.4-3.4,5.4-1.1C44.6,58.1,43.8,60.4,40.8,61z"/>
		</g>
		<g>
			<path fill="#F8A8A2" d="M39.7,61c2.9-0.9,4.7,0.8,4.1,3.8c-0.7,3-3,3.7-5.3,1.7C36.2,64.3,36.8,61.9,39.7,61z"/>
		</g>
		<g>
			<path fill="#F8A8A2" d="M47.3,60.9c-2.9,1-4.8-0.7-4.2-3.7c0.6-3,3-3.8,5.3-1.8C50.7,57.5,50.2,59.9,47.3,60.9z"/>
		</g>
		<g>
			<path fill="#F8A8A2" d="M43.6,64.4c0.3,3,2.6,4,5.1,2.2c2.5-1.8,2.2-4.3-0.6-5.5C45.2,59.9,43.2,61.4,43.6,64.4z"/>
		</g>
	</g>
	<ellipse transform="matrix(0.6715 0.741 -0.741 0.6715 59.3959 -12.1786)" fill="#FCE0E6" cx="43.4" cy="60.9" rx="1.8" ry="1.7"/>
</g>
<g>
	<g>
		<g>
			<path fill="#C998C5" d="M249.5,143.8c-4-0.5-5.2-3.5-2.8-6.7c2.4-3.2,5.7-2.8,7.2,0.9C255.4,141.7,253.5,144.3,249.5,143.8z"/>
		</g>
		<g>
			<path fill="#C998C5" d="M248.2,143.3c4,0.1,5.6,2.9,3.5,6.4s-5.3,3.3-7.2-0.2C242.5,146,244.2,143.2,248.2,143.3z"/>
		</g>
		<g>
			<path fill="#C998C5" d="M257.7,146.3c-4,0-5.6-2.8-3.6-6.3c2-3.4,5.3-3.4,7.2,0C263.3,143.5,261.6,146.4,257.7,146.3z"/>
		</g>
		<g>
			<path fill="#C998C5" d="M251.5,149.1c-0.8,3.9,1.6,6.1,5.4,4.9c3.8-1.2,4.5-4.4,1.5-7.1S252.4,145.3,251.5,149.1z"/>
		</g>
	</g>
	
		<ellipse transform="matrix(0.3994 0.9168 -0.9168 0.3994 284.5339 -144.9068)" fill="#F9D8E7" cx="252.9" cy="144.7" rx="2.3" ry="2.3"/>
</g>
<g>
	<g>
		<g>
			<path fill="#839BD0" d="M265.6,146.5c-3.7-3.5-2.7-7.6,2.2-9c4.9-1.4,7.9,1.5,6.7,6.4C273.3,148.8,269.3,150,265.6,146.5z"/>
		</g>
		<g>
			<path fill="#839BD0" d="M264.6,144.9c4,3.1,3.5,7.3-1.2,9.2s-8-0.6-7.3-5.7C256.7,143.4,260.6,141.8,264.6,144.9z"/>
		</g>
		<g>
			<path fill="#839BD0" d="M272,155.3c-4.1-3-3.6-7.2,1.1-9.2c4.7-2,8,0.5,7.4,5.5C279.9,156.7,276.1,158.4,272,155.3z"/>
		</g>
		<g>
			<path fill="#839BD0" d="M263.6,153.6c-3.8,3.4-3,7.5,1.8,9.1s8-1.1,7-6.1S267.4,150.2,263.6,153.6z"/>
		</g>
	</g>
	
		<ellipse transform="matrix(-0.2243 0.9745 -0.9745 -0.2243 474.6925 -77.8683)" fill="#E2DFEF" cx="268.3" cy="150" rx="3" ry="2.9"/>
</g>
<g>
	<g>
		<g>
			<path fill="#F8A8A2" d="M262.3,138.2c-3,0.4-4.5-1.5-3.4-4.3s3.5-3.1,5.4-0.8S265.2,137.7,262.3,138.2z"/>
		</g>
		<g>
			<path fill="#F8A8A2" d="M261.2,138.1c2.9-0.7,4.6,1,3.8,3.9c-0.8,2.9-3.2,3.5-5.3,1.3C257.7,141.2,258.3,138.8,261.2,138.1z"/>
		</g>
		<g>
			<path fill="#F8A8A2" d="M268.7,138.4c-2.9,0.8-4.6-0.9-3.9-3.8c0.7-2.9,3.1-3.5,5.2-1.4S271.6,137.6,268.7,138.4z"/>
		</g>
		<g>
			<path fill="#F8A8A2" d="M264.8,141.6c0.2,3,2.4,4.1,4.9,2.4c2.5-1.6,2.3-4.1-0.3-5.4C266.7,137.3,264.7,138.7,264.8,141.6z"/>
		</g>
	</g>
	
		<ellipse transform="matrix(0.631 0.7758 -0.7758 0.631 204.9356 -154.5096)" fill="#FCE0E6" cx="264.9" cy="138.2" rx="1.8" ry="1.7"/>
</g>
<g>
	<g>
		<g>
			<path fill="#C998C5" d="M80.2,19.6c-4.1-0.3-5.5-3.3-3.2-6.7s5.6-3.1,7.4,0.6S84.2,19.9,80.2,19.6z"/>
		</g>
		<g>
			<path fill="#C998C5" d="M78.8,19.2c4.1-0.1,5.8,2.7,3.9,6.3c-1.9,3.6-5.3,3.7-7.4,0.2C73.1,22.3,74.7,19.3,78.8,19.2z"/>
		</g>
		<g>
			<path fill="#C998C5" d="M88.6,21.8c-4.1,0.2-5.9-2.6-4-6.2s5.2-3.8,7.4-0.4S92.7,21.6,88.6,21.8z"/>
		</g>
		<g>
			<path fill="#C998C5" d="M82.5,25c-0.6,4,1.9,6.1,5.7,4.7c3.8-1.5,4.3-4.7,1.2-7.3S83.2,21,82.5,25z"/>
		</g>
	</g>
	
		<ellipse transform="matrix(0.4477 0.8942 -0.8942 0.4477 64.452 -63.5213)" fill="#F9D8E7" cx="83.6" cy="20.4" rx="2.4" ry="2.3"/>
</g>
<g>
	<g>
		<g>
			<path fill="#C998C5" d="M91.1,222c-4.1-0.3-5.5-3.3-3.2-6.7s5.6-3.1,7.4,0.6C97,219.5,95.1,222.3,91.1,222z"/>
		</g>
		<g>
			<path fill="#C998C5" d="M89.7,221.5c4.1-0.1,5.8,2.7,3.9,6.3c-1.9,3.6-5.3,3.7-7.4,0.2C84,224.6,85.6,221.7,89.7,221.5z"/>
		</g>
		<g>
			<path fill="#C998C5" d="M99.5,224.2c-4.1,0.2-5.9-2.6-4-6.2c1.9-3.6,5.2-3.8,7.4-0.4S103.6,224,99.5,224.2z"/>
		</g>
		<g>
			<path fill="#C998C5" d="M93.4,227.4c-0.6,4,1.9,6.1,5.7,4.7c3.8-1.5,4.3-4.7,1.2-7.3C97.2,222.1,94.1,223.3,93.4,227.4z"/>
		</g>
	</g>
	
		<ellipse transform="matrix(0.4477 0.8942 -0.8942 0.4477 251.3902 38.4816)" fill="#F9D8E7" cx="94.5" cy="222.8" rx="2.4" ry="2.3"/>
</g>
<g>
	<g>
		<g>
			<path fill="#C998C5" d="M200.2,24.9c-2.3,3.2-5.6,2.9-7.2-0.7c-1.6-3.6,0.3-6.3,4.2-5.9S202.5,21.7,200.2,24.9z"/>
		</g>
		<g>
			<path fill="#C998C5" d="M199.1,25.9c2-3.5,5.2-3.5,7.2,0s0.4,6.3-3.6,6.3C198.8,32.1,197.1,29.3,199.1,25.9z"/>
		</g>
		<g>
			<path fill="#C998C5" d="M206.3,19c-1.9,3.5-5.2,3.6-7.2,0.2c-2.1-3.4-0.5-6.3,3.5-6.4C206.5,12.7,208.2,15.5,206.3,19z"/>
		</g>
		<g>
			<path fill="#C998C5" d="M205.9,25.7c3,2.6,6.1,1.5,6.8-2.4c0.7-3.9-1.7-6-5.5-4.7C203.5,19.9,202.9,23.1,205.9,25.7z"/>
		</g>
	</g>
	
		<ellipse transform="matrix(0.9963 8.616433e-02 -8.616433e-02 0.9963 2.6858 -17.3737)" fill="#F9D8E7" cx="202.6" cy="22.4" rx="2.3" ry="2.3"/>
</g>
<g>
	<g>
		<g>
			<path fill="#839BD0" d="M210.2,12.1c-4.9,1.5-7.9-1.3-6.9-6.2s5.1-6.2,8.8-2.8S215.1,10.5,210.2,12.1z"/>
		</g>
		<g>
			<path fill="#839BD0" d="M208.4,12.2c4.7-2.1,8,0.4,7.5,5.5c-0.6,5.1-4.4,6.7-8.5,3.7S203.7,14.2,208.4,12.2z"/>
		</g>
		<g>
			<path fill="#839BD0" d="M221.1,10.7c-4.6,2.1-8-0.2-7.6-5.3s4.2-6.8,8.4-3.9S225.7,8.5,221.1,10.7z"/>
		</g>
		<g>
			<path fill="#839BD0" d="M215.5,17.2c1.1,5,5.1,6.2,8.9,2.7s2.8-7.5-2.1-9S214.4,12.2,215.5,17.2z"/>
		</g>
	</g>
	
		<ellipse transform="matrix(0.7496 0.6619 -0.6619 0.7496 61.2522 -139.219)" fill="#E2DFEF" cx="214.6" cy="11.3" rx="3" ry="2.9"/>
</g>
<g>
	<g>
		<g>
			<path fill="#C998C5" d="M32.5,107.9c-4.1-0.3-5.5-3.3-3.2-6.7c2.3-3.4,5.6-3.1,7.4,0.6C38.4,105.4,36.6,108.2,32.5,107.9z"/>
		</g>
		<g>
			<path fill="#C998C5" d="M31.1,107.4c4.1-0.1,5.8,2.7,3.9,6.3c-1.9,3.6-5.3,3.7-7.4,0.2C25.5,110.5,27,107.6,31.1,107.4z"/>
		</g>
		<g>
			<path fill="#C998C5" d="M41,110.1c-4.1,0.2-5.9-2.6-4-6.2c1.9-3.6,5.2-3.8,7.4-0.4C46.5,106.9,45,109.9,41,110.1z"/>
		</g>
		<g>
			<path fill="#C998C5" d="M34.9,113.3c-0.6,4,1.9,6.1,5.7,4.7c3.8-1.5,4.3-4.7,1.2-7.3S35.5,109.2,34.9,113.3z"/>
		</g>
	</g>
	
		<ellipse transform="matrix(0.4477 0.8942 -0.8942 0.4477 117.0203 27.8387)" fill="#F9D8E7" cx="36" cy="108.7" rx="2.4" ry="2.3"/>
</g>
<g>
	<g>
		<g>
			<path fill="#F8A8A2" d="M26.1,115.8c-3,0.6-4.6-1.3-3.7-4.2c1-2.9,3.4-3.4,5.4-1.1C29.9,112.8,29.1,115.2,26.1,115.8z"/>
		</g>
		<g>
			<path fill="#F8A8A2" d="M25,115.7c2.9-0.9,4.7,0.8,4.1,3.8c-0.7,3-3,3.7-5.3,1.7S22.1,116.7,25,115.7z"/>
		</g>
		<g>
			<path fill="#F8A8A2" d="M32.7,115.7c-2.9,1-4.8-0.7-4.2-3.7c0.6-3,3-3.8,5.3-1.8C36.1,112.3,35.6,114.7,32.7,115.7z"/>
		</g>
		<g>
			<path fill="#F8A8A2" d="M28.9,119.2c0.3,3,2.6,4,5.1,2.2s2.2-4.3-0.6-5.5C30.6,114.7,28.6,116.2,28.9,119.2z"/>
		</g>
	</g>
	<ellipse transform="matrix(0.6715 0.741 -0.741 0.6715 95.1608 16.6637)" fill="#FCE0E6" cx="28.8" cy="115.7" rx="1.8" ry="1.7"/>
</g>
</svg>
