<?xml version="1.0" encoding="utf-8"?>
<!-- Generator: Adobe Illustrator 17.0.0, SVG Export Plug-In . SVG Version: 6.00 Build 0)  -->
<!DOCTYPE svg PUBLIC "-//W3C//DTD SVG 1.1//EN" "http://www.w3.org/Graphics/SVG/1.1/DTD/svg11.dtd">
<svg version="1.1" id="Layer_1" xmlns="http://www.w3.org/2000/svg" xmlns:xlink="http://www.w3.org/1999/xlink" x="0px" y="0px"
	 width="295.8px" height="263.1px" viewBox="0 0 295.8 263.1" enable-background="new 0 0 295.8 263.1" xml:space="preserve">
<line fill="none" stroke="#2BB673" stroke-miterlimit="10" x1="69.2" y1="206.5" x2="12.9" y2="175.6"/>
<g>
	<line fill="none" stroke="#FFE383" stroke-width="2" stroke-miterlimit="10" x1="114" y1="70.3" x2="179.2" y2="70.3"/>
	<line fill="none" stroke="#FFE383" stroke-width="2" stroke-miterlimit="10" x1="90.8" y1="109" x2="119.8" y2="109"/>
	<line fill="none" stroke="#FFE383" stroke-width="2" stroke-miterlimit="10" x1="140.4" y1="109" x2="205.7" y2="109"/>
	<line fill="none" stroke="#FFE383" stroke-width="2" stroke-miterlimit="10" x1="161.4" y1="128.4" x2="199.1" y2="128.4"/>
	<line fill="none" stroke="#FFE383" stroke-miterlimit="10" x1="103.5" y1="145.3" x2="132.4" y2="145.3"/>
	<line fill="none" stroke="#FFE383" stroke-width="2" stroke-miterlimit="10" x1="97.7" y1="166.3" x2="121.6" y2="166.3"/>
	<path fill="none" stroke="#FFE383" stroke-width="2" stroke-miterlimit="10" d="M227.4,118.6c0-5.5-6.2-9.9-13.8-9.9h-3.8
		c7.2,0,13-4.5,13-10.1s-5.8-10.1-13-10.1h-10.3c6,0,10.9-4,10.9-8.9s-4.9-8.9-10.9-8.9h-9.9c4.9,0,8.9-4,8.9-8.9s-4-8.9-8.9-8.9
		h-11.1c3.6,0,6.5-3.5,6.5-7.8s-2.9-7.8-6.5-7.8h-63c-3.6,0-6.5,3.5-6.5,7.8s2.9,7.8,6.5,7.8H104c-4.9,0-8.9,4-8.9,8.9
		s4,8.9,8.9,8.9h-9.6c-6,0-10.9,4-10.9,8.9s4.9,8.9,10.9,8.9h-9.5c-7.2,0-13,4.5-13,10.1s5.8,10.1,13,10.1h-4.6
		c-7.6,0-13.8,4.4-13.8,9.9s6.2,9.9,13.8,9.9h4.2c-7.2,0-13,4.5-13,10.1s5.8,10.1,13,10.1h4.8c-6.6,0-12,4-12,8.9s5.4,8.9,12,8.9
		h5.5c-6,0-10.9,4-10.9,8.9s4.9,8.9,10.9,8.9h40.9v-16.1c0-6.6,5.4-12,12-12s12,5.4,12,12v16.1h40.2c6,0,10.9-4,10.9-8.9
		s-4.9-8.9-10.9-8.9h4.7c6.6,0,12-4,12-8.9s-5.4-8.9-12-8.9h4.8c7.2,0,13-4.5,13-10.1s-5.8-10.1-13-10.1h4.2
		C221.2,128.4,227.4,124,227.4,118.6z"/>
</g>
<path fill="none" stroke="#B4D785" stroke-width="3" stroke-miterlimit="10" d="M172.6,5.5c0.2,0,0.3,0.1,0.5,0.1
	c52,11.7,90.9,58.1,91.1,113.6c0.2,64.5-52,117-116.5,117.2s-117-52-117.2-116.5C30.3,64,69.4,17.2,121.8,5.5
	c1.2-0.3,2.4-0.5,3.6-0.8"/>
<line fill="none" stroke="#B4D785" stroke-width="3" stroke-miterlimit="10" x1="148.5" y1="237.4" x2="129.2" y2="262.2"/>
<line fill="none" stroke="#B4D785" stroke-width="3" stroke-miterlimit="10" x1="148.5" y1="237.4" x2="168.4" y2="262.1"/>
<g>
	<path fill="#B4D785" d="M67.1,35.8c0-0.1,5.7-4.3,6-4.6c2.6-2.1,5.5-4.6,7.1-7.6c1.5-2.9,1.2-5.8-0.4-8.6c-1.3-2.4-3.2-4.3-4.8-6.4
		l-3.7-5.1l-1-0.1c-2.1,1.5-4.4,2.6-6.5,4.1c-1.4,1-2.6,2.1-3.6,3.5c-2.5,3.6-2.4,7.9-1,11.8c1.5,4.2,3.6,7.6,6.4,11L67.1,35.8z"/>
	<path fill="#B4D785" d="M66.9,35.9c0.1,0.1,5-5.1,5.3-5.4c2.4-2.4,5.3-4.9,8.4-6.1c3-1.2,5.9-0.5,8.5,1.4c2.2,1.6,3.8,3.7,5.8,5.6
		l4.6,4.3v1c-1.7,1.9-3.1,4.1-4.8,6c-1.1,1.2-2.4,2.3-3.9,3.1c-3.8,2-8.1,1.4-11.9-0.4c-4-2-7.1-4.5-10.2-7.6
		C68.6,37.7,66.9,35.9,66.9,35.9z"/>
	<path fill="#B4D785" d="M44.8,63.8c-0.1,0,3.8-6,4-6.4c1.7-2.9,3.5-6.3,3.9-9.6c0.4-3.2-1-5.8-3.4-7.9c-2.1-1.8-4.5-2.9-6.8-4.3
		l-5.3-3.4l-1,0.3c-1.4,2.1-3.2,4-4.7,6.1c-0.9,1.4-1.7,2.9-2.1,4.5c-1.1,4.2,0.5,8.2,3.2,11.4c2.9,3.4,6,5.8,9.8,8.1
		C42.7,62.6,44.8,63.8,44.8,63.8z"/>
	<path fill="#B4D785" d="M44.6,64.1c0.1,0,2.8-6.6,3-6.9c1.4-3.1,3.2-6.4,5.8-8.7c2.4-2.2,5.4-2.5,8.4-1.6c2.6,0.7,4.9,2.1,7.4,3.2
		l5.8,2.4l0.3,1c-0.9,2.4-1.5,4.9-2.4,7.3c-0.6,1.6-1.4,3-2.6,4.3c-2.9,3.2-7.1,4.2-11.3,3.8c-4.4-0.5-8.2-1.7-12.2-3.6
		C46.9,65.1,44.6,64.1,44.6,64.1z"/>
	<path fill="#B4D785" d="M32,97.2c-0.1,0,2.4-6.7,2.6-7.1c1.1-3.2,2-6.9,1.8-10.3c-0.3-3.2-2.2-5.5-5-7c-2.4-1.3-5-1.8-7.5-2.8
		L18,67.8l-1,0.5c-1,2.4-2.3,4.6-3.2,7c-0.6,1.6-1,3.2-1.1,4.9c-0.1,4.3,2.3,7.9,5.6,10.5c3.5,2.7,7.1,4.4,11.3,5.8
		C29.6,96.4,32,97.2,32,97.2z"/>
	<path fill="#B4D785" d="M31.9,97.4c0.1,0,1.4-7,1.4-7.4c0.7-3.3,1.8-6.9,3.8-9.7c1.9-2.6,4.7-3.6,7.9-3.4c2.7,0.2,5.2,1,7.9,1.5
		l6.2,1.1l0.5,0.9c-0.4,2.5-0.4,5.1-0.8,7.7c-0.3,1.7-0.8,3.3-1.6,4.7c-2.1,3.8-6,5.6-10.2,6.1c-4.4,0.5-8.4,0.1-12.7-0.9
		C34.3,98,31.9,97.4,31.9,97.4z"/>
	<path fill="#B4D785" d="M31.5,134.8c-0.1,0,0.4-7.1,0.4-7.6c0.1-3.4,0-7.2-1.3-10.3c-1.2-3-3.7-4.6-6.8-5.2c-2.7-0.5-5.3-0.3-8-0.5
		l-6.3-0.4l-0.7,0.7c-0.2,2.6-0.9,5.1-1.1,7.6c-0.1,1.7-0.1,3.4,0.4,5c1.1,4.2,4.5,6.9,8.4,8.4c4.2,1.6,8.1,2.1,12.5,2.2L31.5,134.8
		z"/>
	<path fill="#B4D785" d="M31.5,135c0.1,0-0.7-7.1-0.8-7.5c-0.3-3.4-0.3-7.2,0.8-10.4c1-3.1,3.5-4.8,6.5-5.6c2.7-0.6,5.3-0.5,8-0.9
		l6.3-0.7l0.8,0.7c0.4,2.5,1.1,5,1.4,7.6c0.2,1.7,0.2,3.4-0.1,5c-0.9,4.2-4.1,7.1-8,8.8c-4.1,1.8-8,2.5-12.4,2.8L31.5,135z"/>
	<path fill="#B4D785" d="M43.3,175.7c-0.1,0-2-6.9-2.1-7.3c-1-3.2-2.4-6.8-4.6-9.3c-2.1-2.5-5-3.2-8.1-2.7c-2.7,0.4-5.1,1.5-7.7,2.2
		l-6.1,1.7l-0.5,0.9c0.6,2.5,0.9,5.1,1.5,7.5c0.4,1.6,1.1,3.2,2,4.6c2.4,3.6,6.5,5.1,10.7,5.2c4.4,0.1,8.4-0.6,12.6-2
		C40.9,176.5,43.3,175.7,43.3,175.7z"/>
	<path fill="#B4D785" d="M43.3,176c0.1,0-3-6.5-3.2-6.9c-1.4-3.1-2.6-6.7-2.7-10.1c0-3.2,1.7-5.7,4.4-7.4c2.3-1.5,4.8-2.3,7.3-3.4
		l5.7-2.7l0.9,0.4c1.2,2.3,2.7,4.4,3.8,6.7c0.8,1.5,1.3,3.1,1.5,4.8c0.5,4.3-1.6,8.1-4.7,10.9c-3.3,3-6.7,5-10.8,6.8
		C45.6,175,43.3,176,43.3,176z"/>
	<path fill="#B4D785" d="M114,231.8c0,0.1-6.3-3.4-6.6-3.6c-3-1.6-6.5-3.1-9.9-3.3c-3.2-0.2-5.8,1.3-7.6,3.9c-1.6,2.2-2.6,4.7-3.9,7
		l-3.1,5.5l0.3,1c2.2,1.3,4.2,3,6.4,4.2c1.4,0.8,3,1.5,4.7,1.8c4.3,0.8,8.1-1,11.2-4c3.2-3.1,5.4-6.4,7.4-10.3
		C112.9,234,114,231.8,114,231.8z"/>
	<path fill="#B4D785" d="M114.2,232c0-0.1-6.7-2.4-7.1-2.5c-3.1-1.2-6.6-2.8-9-5.2c-2.3-2.3-2.8-5.2-2.2-8.3c0.6-2.7,1.8-5,2.7-7.6
		l2-6l0.9-0.4c2.4,0.8,5,1.2,7.4,2c1.6,0.5,3.1,1.2,4.5,2.3c3.4,2.7,4.6,6.8,4.5,11c-0.2,4.4-1.2,8.3-2.8,12.4L114.2,232z"/>
	<path fill="#B4D785" d="M72.3,208.6c-0.1,0-4.6-5.4-4.9-5.8c-2.2-2.5-5-5.2-8.1-6.6c-2.9-1.4-5.9-0.8-8.5,0.9
		c-2.3,1.5-4.1,3.5-6.1,5.2l-4.8,4v1c1.6,2,2.9,4.3,4.5,6.3c1,1.3,2.3,2.5,3.7,3.4c3.7,2.3,8,1.9,11.9,0.3c4.1-1.7,7.4-4,10.6-7
		C70.4,210.3,72.3,208.6,72.3,208.6z"/>
	<path fill="#B4D785" d="M72.5,208.8c0-0.1-5.4-4.6-5.7-4.9c-2.5-2.2-5.2-5-6.6-8.1c-1.4-2.9-0.8-5.9,0.9-8.5
		c1.5-2.3,3.5-4.1,5.2-6.1l4-4.8h1c2,1.6,4.3,2.9,6.3,4.5c1.3,1,2.5,2.3,3.3,3.7c2.2,3.7,1.9,8,0.3,11.9c-1.7,4.1-4.1,7.3-7,10.6
		C74.1,207,72.5,208.8,72.5,208.8z"/>
</g>
<g>
	<path fill="#B4D785" d="M226.9,33.8c0-0.1-5.7-4.3-6-4.6c-2.6-2.1-5.5-4.6-7.1-7.6c-1.5-2.9-1.2-5.8,0.4-8.6
		c1.3-2.4,3.2-4.3,4.8-6.4l3.7-5.1l1-0.1c2.1,1.5,4.4,2.6,6.5,4.1c1.4,1,2.6,2.1,3.6,3.5c2.5,3.6,2.4,7.9,1,11.8
		c-1.5,4.2-3.6,7.6-6.4,11C228.5,31.8,226.9,33.8,226.9,33.8z"/>
	<path fill="#B4D785" d="M227.2,33.9c-0.1,0.1-5-5.1-5.3-5.4c-2.4-2.4-5.3-4.9-8.4-6.1c-3-1.2-5.9-0.5-8.5,1.4
		c-2.2,1.6-3.8,3.7-5.8,5.6l-4.6,4.3v1c1.7,1.9,3.1,4.1,4.8,6c1.1,1.2,2.4,2.3,3.9,3.1c3.8,2,8.1,1.4,11.9-0.4c4-2,7.1-4.5,10.2-7.6
		C225.4,35.7,227.2,33.9,227.2,33.9z"/>
	<path fill="#B4D785" d="M249.3,61.9c0.1,0-3.8-6-4-6.4c-1.7-2.9-3.5-6.3-3.9-9.6c-0.4-3.2,1-5.8,3.4-7.9c2.1-1.8,4.5-2.9,6.8-4.3
		l5.3-3.4l1,0.3c1.4,2.1,3.2,4,4.7,6.1c0.9,1.4,1.7,2.9,2.1,4.5c1.1,4.2-0.5,8.2-3.2,11.4c-2.9,3.4-6,5.8-9.8,8.1
		C251.4,60.6,249.3,61.9,249.3,61.9z"/>
	<path fill="#B4D785" d="M249.4,62.1c-0.1,0-2.8-6.6-3-6.9c-1.4-3.1-3.2-6.4-5.8-8.7c-2.4-2.2-5.4-2.5-8.4-1.6
		c-2.6,0.7-4.9,2.1-7.4,3.2l-5.8,2.4l-0.3,1c0.9,2.4,1.5,4.9,2.4,7.3c0.6,1.6,1.4,3,2.6,4.3c2.9,3.2,7.1,4.2,11.3,3.8
		c4.4-0.5,8.2-1.7,12.2-3.6C247.2,63.1,249.4,62.1,249.4,62.1z"/>
	<path fill="#B4D785" d="M262.1,95.2c0.1,0-2.4-6.7-2.6-7.1c-1.1-3.2-2-6.9-1.8-10.3c0.3-3.2,2.2-5.5,5-7c2.4-1.3,5-1.8,7.5-2.8
		l5.9-2.2l0.9,0.5c1,2.4,2.3,4.6,3.2,7c0.6,1.6,1,3.2,1.1,4.9c0.1,4.3-2.3,7.9-5.6,10.5c-3.5,2.7-7.1,4.4-11.3,5.8
		C264.5,94.4,262.1,95.2,262.1,95.2z"/>
	<path fill="#B4D785" d="M262.2,95.5c-0.1,0-1.4-7-1.4-7.4c-0.7-3.3-1.8-6.9-3.8-9.7c-1.9-2.6-4.7-3.6-7.9-3.4
		c-2.7,0.2-5.2,1-7.9,1.5l-6.2,1.1l-0.5,0.9c0.4,2.5,0.4,5.1,0.8,7.7c0.3,1.7,0.8,3.3,1.6,4.7c2.1,3.8,6,5.6,10.2,6.1
		c4.4,0.5,8.4,0.1,12.7-0.9C259.8,96,262.2,95.5,262.2,95.5z"/>
	<path fill="#B4D785" d="M262.5,132.8c0.1,0-0.4-7.1-0.4-7.6c-0.1-3.4,0-7.2,1.3-10.3c1.2-3,3.7-4.6,6.8-5.2c2.7-0.5,5.3-0.3,8-0.5
		l6.3-0.4l0.7,0.7c0.2,2.6,0.9,5.1,1.1,7.6c0.1,1.7,0.1,3.4-0.4,5c-1.1,4.2-4.5,6.9-8.4,8.4c-4.2,1.6-8.1,2.1-12.5,2.2L262.5,132.8z
		"/>
	<path fill="#B4D785" d="M262.6,133c-0.1,0,0.7-7.1,0.8-7.5c0.3-3.4,0.3-7.2-0.8-10.4c-1-3.1-3.5-4.8-6.5-5.6
		c-2.7-0.6-5.3-0.5-8-0.9l-6.3-0.7l-0.8,0.7c-0.4,2.5-1.1,5-1.4,7.6c-0.2,1.7-0.2,3.4,0.1,5c0.9,4.2,4.1,7.1,8,8.8
		c4.1,1.8,8,2.5,12.4,2.8C260.1,132.9,262.6,133,262.6,133z"/>
	<path fill="#B4D785" d="M250.8,173.7c0.1,0,2-6.9,2.1-7.3c1-3.2,2.4-6.8,4.6-9.3c2.1-2.5,5-3.2,8.1-2.7c2.7,0.4,5.1,1.5,7.7,2.2
		l6.1,1.7l0.5,0.9c-0.6,2.5-0.9,5.1-1.5,7.5c-0.4,1.6-1.1,3.2-2,4.6c-2.4,3.6-6.5,5.1-10.7,5.2c-4.4,0.1-8.4-0.6-12.6-2
		C253.2,174.5,250.8,173.7,250.8,173.7z"/>
	<path fill="#B4D785" d="M250.7,174c-0.1,0,3-6.5,3.2-6.9c1.4-3.1,2.6-6.7,2.7-10.1c0-3.2-1.7-5.7-4.4-7.4c-2.3-1.5-4.8-2.3-7.3-3.4
		l-5.7-2.7l-0.9,0.4c-1.2,2.3-2.7,4.4-3.8,6.7c-0.8,1.5-1.3,3.1-1.5,4.8c-0.5,4.3,1.6,8.1,4.7,10.9c3.3,3,6.7,5,10.8,6.8
		C248.5,173,250.7,174,250.7,174z"/>
	<path fill="#B4D785" d="M221.8,206.6c0.1,0,4.6-5.4,4.9-5.8c2.2-2.5,5-5.2,8.1-6.6c2.9-1.4,5.9-0.8,8.5,0.9
		c2.3,1.5,4.1,3.5,6.1,5.2l4.8,4v1c-1.6,2-2.9,4.3-4.5,6.3c-1,1.3-2.3,2.5-3.7,3.4c-3.7,2.3-8,1.9-11.9,0.3c-4.1-1.7-7.4-4-10.6-7
		C223.6,208.3,221.8,206.6,221.8,206.6z"/>
	<path fill="#B4D785" d="M221.6,206.8c0-0.1,5.4-4.6,5.7-4.9c2.5-2.2,5.2-5,6.6-8.1c1.4-2.9,0.8-5.9-0.9-8.5
		c-1.5-2.3-3.5-4.1-5.2-6.1l-4-4.8h-1c-2,1.6-4.3,2.9-6.3,4.5c-1.3,1-2.5,2.3-3.3,3.7c-2.2,3.7-1.9,8-0.3,11.9
		c1.7,4.1,4.1,7.3,7,10.6C219.9,205,221.6,206.8,221.6,206.8z"/>
	<path fill="#B4D785" d="M180.1,229.8c0,0.1,6.3-3.4,6.6-3.6c3-1.6,6.5-3.1,9.9-3.3c3.2-0.2,5.8,1.3,7.6,3.9c1.6,2.2,2.6,4.7,3.9,7
		l3.1,5.5l-0.3,1c-2.2,1.3-4.2,3-6.4,4.2c-1.4,0.8-3,1.5-4.7,1.8c-4.3,0.8-8.1-1-11.2-4c-3.2-3.1-5.4-6.4-7.4-10.3
		C181.2,232.1,180.1,229.8,180.1,229.8z"/>
	<path fill="#B4D785" d="M179.8,230c0-0.1,6.7-2.4,7.1-2.5c3.1-1.2,6.6-2.8,9-5.2c2.3-2.3,2.8-5.2,2.2-8.3c-0.6-2.7-1.8-5-2.7-7.6
		l-2-6l-0.9-0.4c-2.4,0.8-5,1.2-7.4,2c-1.6,0.5-3.1,1.2-4.5,2.3c-3.4,2.7-4.6,6.8-4.5,11c0.2,4.4,1.2,8.3,2.8,12.4
		C178.9,227.7,179.8,230,179.8,230z"/>
</g>
<g>
	<line fill="none" stroke="#2BB673" stroke-miterlimit="10" x1="191.3" y1="238.1" x2="235.2" y2="223.9"/>
	<line fill="none" stroke="#2BB673" stroke-miterlimit="10" x1="213.8" y1="230.8" x2="217.2" y2="238.1"/>
	<line fill="none" stroke="#2BB673" stroke-miterlimit="10" x1="217.2" y1="238.1" x2="222.6" y2="240.5"/>
	<line fill="none" stroke="#2BB673" stroke-miterlimit="10" x1="217.2" y1="238.1" x2="213.8" y2="244.7"/>
	<line fill="none" stroke="#2BB673" stroke-miterlimit="10" x1="217.2" y1="238.1" x2="211.3" y2="240.8"/>
	<line fill="none" stroke="#2BB673" stroke-miterlimit="10" x1="209" y1="232.2" x2="211.4" y2="225.4"/>
	<line fill="none" stroke="#2BB673" stroke-miterlimit="10" x1="211.4" y1="225.4" x2="210.1" y2="219.8"/>
	<line fill="none" stroke="#2BB673" stroke-miterlimit="10" x1="211.4" y1="225.4" x2="219.7" y2="223.9"/>
	<line fill="none" stroke="#2BB673" stroke-miterlimit="10" x1="214.6" y1="224.8" x2="216.8" y2="220.9"/>
	<line fill="none" stroke="#2BB673" stroke-miterlimit="10" x1="227.5" y1="226.4" x2="231.5" y2="228.9"/>
	<line fill="none" stroke="#2BB673" stroke-miterlimit="10" x1="227.5" y1="226.4" x2="229.5" y2="220.9"/>
	<line fill="none" stroke="#2BB673" stroke-miterlimit="10" x1="192.8" y1="237.6" x2="199.5" y2="226.1"/>
	<line fill="none" stroke="#2BB673" stroke-miterlimit="10" x1="199.5" y1="226.1" x2="202.3" y2="225.8"/>
	<line fill="none" stroke="#2BB673" stroke-miterlimit="10" x1="199.5" y1="226.1" x2="202.3" y2="221.9"/>
	
		<ellipse transform="matrix(-0.8067 -0.591 0.591 -0.8067 238.5599 517.9844)" fill="#8A77B7" cx="203.999" cy="219.974" rx="1.8" ry="3"/>
	
		<ellipse transform="matrix(-0.3178 -0.9482 0.9482 -0.3178 56.2735 490.499)" fill="#8A77B7" cx="204.59" cy="225.006" rx="1.8" ry="3"/>
	
		<ellipse transform="matrix(-0.9631 0.2693 -0.2693 -0.9631 470.0824 370.6871)" fill="#8A77B7" cx="209.616" cy="217.586" rx="1.8" ry="3"/>
	
		<ellipse transform="matrix(-0.5622 -0.827 0.827 -0.5622 126.8275 551.5775)" fill="#8A77B7" cx="209.411" cy="242.219" rx="1.8" ry="3"/>
	
		<ellipse transform="matrix(-0.8753 -0.4836 0.4836 -0.8753 279.2598 566.0474)" fill="#8A77B7" cx="212.615" cy="247.016" rx="1.8" ry="3"/>
	
		<ellipse transform="matrix(-0.855 -0.5187 0.5187 -0.855 290.7109 519.2873)" fill="#8A77B7" cx="217.956" cy="219" rx="1.8" ry="3"/>
	
		<ellipse transform="matrix(-0.229 -0.9734 0.9734 -0.229 55.4542 490.2936)" fill="#8A77B7" cx="221.894" cy="223.186" rx="1.8" ry="3"/>
	
		<ellipse transform="matrix(0.3848 -0.923 0.923 0.3848 -84.6869 355.9467)" fill="#8A77B7" cx="224.674" cy="241.502" rx="1.8" ry="3"/>
	
		<ellipse transform="matrix(-0.9438 -0.3305 0.3305 -0.9438 375.5296 500.802)" fill="#8A77B7" cx="230.34" cy="218.476" rx="1.8" ry="3"/>
	
		<ellipse transform="matrix(-0.548 0.8365 -0.8365 -0.548 553.7047 161.1946)" fill="#8A77B7" cx="233.3" cy="230.2" rx="1.8" ry="3"/>
	
		<ellipse transform="matrix(-0.3583 -0.9336 0.9336 -0.3583 114.1153 524.456)" fill="#8A77B7" cx="237.296" cy="223.01" rx="1.8" ry="3"/>
</g>
<g>
	<line fill="none" stroke="#2BB673" stroke-miterlimit="10" x1="55.9" y1="196.8" x2="34" y2="142.2"/>
	<line fill="none" stroke="#2BB673" stroke-miterlimit="10" x1="44.6" y1="168.8" x2="53" y2="162.3"/>
	<line fill="none" stroke="#2BB673" stroke-miterlimit="10" x1="53" y1="162.3" x2="55.2" y2="154.4"/>
	<line fill="none" stroke="#2BB673" stroke-miterlimit="10" x1="53" y1="162.3" x2="61.3" y2="165"/>
	<line fill="none" stroke="#2BB673" stroke-miterlimit="10" x1="53" y1="162.3" x2="56.9" y2="169.3"/>
	<line fill="none" stroke="#2BB673" stroke-miterlimit="10" x1="46.8" y1="174.7" x2="38.4" y2="173.4"/>
	<line fill="none" stroke="#2BB673" stroke-miterlimit="10" x1="38.4" y1="173.4" x2="31.7" y2="176.8"/>
	<line fill="none" stroke="#2BB673" stroke-miterlimit="10" x1="38.4" y1="173.4" x2="35.6" y2="162.8"/>
	<line fill="none" stroke="#2BB673" stroke-miterlimit="10" x1="37.3" y1="169.4" x2="32.4" y2="167.4"/>
	<line fill="none" stroke="#2BB673" stroke-miterlimit="10" x1="37.8" y1="151.6" x2="40.4" y2="145.7"/>
	<line fill="none" stroke="#2BB673" stroke-miterlimit="10" x1="37.8" y1="151.6" x2="30.9" y2="150.6"/>
	<line fill="none" stroke="#2BB673" stroke-miterlimit="10" x1="55" y1="194.9" x2="40.6" y2="189.1"/>
	<line fill="none" stroke="#2BB673" stroke-miterlimit="10" x1="40.6" y1="189.1" x2="39.8" y2="185.4"/>
	<line fill="none" stroke="#2BB673" stroke-miterlimit="10" x1="40.6" y1="189.1" x2="35.2" y2="186.5"/>
	<path fill="#8A77B7" d="M29.6,183.1c0.6-1.2,2.5-1.5,4.3-0.5c1.7,0.9,2.6,2.7,2,4c-0.6,1.2-2.5,1.5-4.3,0.5S28.9,184.4,29.6,183.1z
		"/>
	<path fill="#8A77B7" d="M37.1,179c1.1-0.7,2.6,0.4,3.5,2.3c0.8,2,0.6,4.1-0.5,4.8s-2.6-0.4-3.5-2.3C35.8,181.9,36,179.7,37.1,179z"
		/>
	<path fill="#8A77B7" d="M25.7,180c-0.4-1.2,0.8-3,2.6-4.1c1.9-1,3.8-0.9,4.2,0.3s-0.8,3-2.6,4.1C28,181.3,26.2,181.2,25.7,180z"/>
	<path fill="#8A77B7" d="M56.4,168.6c0.9-1,2.7-0.5,4,1.1s1.6,3.7,0.6,4.6c-0.9,1-2.7,0.5-4-1.1S55.5,169.6,56.4,168.6z"/>
	<path fill="#8A77B7" d="M60.8,164.7c0.5-1.3,2.4-1.8,4.2-1.1c1.8,0.7,3,2.3,2.5,3.6s-2.4,1.8-4.2,1.1
		C61.4,167.5,60.3,165.9,60.8,164.7z"/>
	<path fill="#8A77B7" d="M26.6,165.1c0.5-1.3,2.4-1.7,4.2-0.9s2.9,2.4,2.3,3.7c-0.5,1.3-2.4,1.7-4.2,0.9S26.1,166.4,26.6,165.1z"/>
	<path fill="#8A77B7" d="M33.4,156.4c1.1-0.6,2.6,0.6,3.2,2.7c0.6,2.1,0.2,4.2-0.9,4.8c-1.1,0.6-2.6-0.6-3.2-2.7
		C31.8,159.1,32.2,156.9,33.4,156.4z"/>
	<path fill="#8A77B7" d="M57.3,147.2c1.1,0.3,1.6,2.3,1,4.5s-2,3.8-3.2,3.6c-1.1-0.3-1.6-2.3-1-4.5S56.1,147,57.3,147.2z"/>
	<path fill="#8A77B7" d="M24.4,149.6c0.3-1.3,2.1-2.2,4.1-1.9s3.3,1.6,3,3s-2.1,2.2-4.1,1.9C25.4,152.2,24.1,150.9,24.4,149.6z"/>
	<path fill="#8A77B7" d="M40,146.7c-1.1-0.5-1.2-2.6-0.2-4.7c0.9-2.1,2.6-3.4,3.6-2.9c1.1,0.5,1.2,2.6,0.2,4.7
		C42.7,145.9,41,147.2,40,146.7z"/>
	<path fill="#8A77B7" d="M31,136.1c1.1-0.7,2.7,0.2,3.6,2.2c0.9,1.9,0.7,4.1-0.3,4.8c-1.1,0.7-2.7-0.2-3.6-2.2
		C29.8,139,29.9,136.8,31,136.1z"/>
</g>
<g>
	<line fill="none" stroke="#2BB673" stroke-miterlimit="10" x1="255.014" y1="79.539" x2="283.514" y2="23.439"/>
	<line fill="none" stroke="#2BB673" stroke-miterlimit="10" x1="269.614" y1="50.739" x2="278.514" y2="55.839"/>
	<line fill="none" stroke="#2BB673" stroke-miterlimit="10" x1="278.514" y1="55.839" x2="285.314" y2="53.439"/>
	<line fill="none" stroke="#2BB673" stroke-miterlimit="10" x1="278.514" y1="55.839" x2="280.714" y2="66.239"/>
	<line fill="none" stroke="#2BB673" stroke-miterlimit="10" x1="278.514" y1="55.839" x2="275.414" y2="64.139"/>
	<line fill="none" stroke="#2BB673" stroke-miterlimit="10" x1="266.414" y1="56.639" x2="263.214" y2="46.939"/>
	<line fill="none" stroke="#2BB673" stroke-miterlimit="10" x1="263.214" y1="46.939" x2="257.414" y2="41.839"/>
	<line fill="none" stroke="#2BB673" stroke-miterlimit="10" x1="263.214" y1="46.939" x2="269.414" y2="37.539"/>
	<line fill="none" stroke="#2BB673" stroke-miterlimit="10" x1="265.514" y1="43.339" x2="264.514" y2="36.939"/>
	<line fill="none" stroke="#2BB673" stroke-miterlimit="10" x1="278.514" y1="33.239" x2="284.114" y2="32.339"/>
	<line fill="none" stroke="#2BB673" stroke-miterlimit="10" x1="278.514" y1="33.239" x2="275.914" y2="25.239"/>
	<line fill="none" stroke="#2BB673" stroke-miterlimit="10" x1="255.914" y1="77.539" x2="252.914" y2="58.639"/>
	<line fill="none" stroke="#2BB673" stroke-miterlimit="10" x1="252.914" y1="58.639" x2="255.214" y2="55.639"/>
	<line fill="none" stroke="#2BB673" stroke-miterlimit="10" x1="252.914" y1="58.639" x2="252.114" y2="51.339"/>
	<path fill="#8A77B7" d="M251.714,43.339c1.2-0.1,2.3,1.8,2.5,4.2s-0.6,4.4-1.8,4.5c-1.2,0.1-2.3-1.8-2.5-4.2
		C249.714,45.439,250.614,43.439,251.714,43.339z"/>
	<path fill="#8A77B7" d="M258.514,48.939c1,0.8,1.1,3,0,5.1c-1,2-2.7,3.1-3.7,2.3c-1-0.8-1.1-3,0-5.1
		C255.814,49.239,257.414,48.139,258.514,48.939z"/>
	<path fill="#8A77B7" d="M252.114,37.339c0.7-1.2,2.6-1,4.3,0.4c1.7,1.4,2.5,3.5,1.9,4.6c-0.7,1.2-2.6,1-4.3-0.4
		C252.314,40.639,251.514,38.539,252.114,37.339z"/>
	<path fill="#8A77B7" d="M275.614,63.239c1.2,0.4,1.7,2.6,1.2,4.9s-1.9,3.9-3,3.5c-1.2-0.4-1.7-2.6-1.2-4.9
		C273.114,64.339,274.514,62.839,275.614,63.239z"/>
	<path fill="#8A77B7" d="M280.714,65.539c1.2-0.3,2.5,1.4,2.9,3.8s-0.2,4.5-1.3,4.8s-2.5-1.4-2.9-3.8S279.514,65.839,280.714,65.539
		z"/>
	<path fill="#8A77B7" d="M263.214,29.439c1.2-0.2,2.4,1.6,2.8,4s-0.3,4.5-1.5,4.7s-2.4-1.6-2.8-4S262.114,29.639,263.214,29.439z"/>
	<path fill="#8A77B7" d="M272.914,31.339c1,0.9,0.8,3.1-0.3,5.1s-2.9,2.8-3.9,1.9c-1-0.9-0.8-3.1,0.3-5.1
		S272.014,30.539,272.914,31.339z"/>
	<path fill="#8A77B7" d="M291.414,51.339c0.4,1.4-0.9,3.1-2.8,3.8c-1.9,0.7-3.8,0.2-4.2-1.2c-0.4-1.4,0.9-3.1,2.8-3.8
		C289.214,49.439,291.014,49.939,291.414,51.339z"/>
	<path fill="#8A77B7" d="M273.414,17.739c1.1-0.5,2.6,0.9,3.4,3.2s0.5,4.5-0.6,5s-2.6-0.9-3.4-3.2
		C271.914,20.439,272.214,18.239,273.414,17.739z"/>
	<path fill="#8A77B7" d="M283.214,32.639c-0.2-1.4,1.3-2.8,3.3-3.1s3.8,0.7,3.9,2.1s-1.3,2.8-3.3,3.1
		C285.114,35.039,283.314,34.039,283.214,32.639z"/>
	<path fill="#8A77B7" d="M286.414,16.639c1.1,0.7,1.2,3,0.2,5.1c-0.9,2.1-2.6,3.2-3.6,2.5c-1.1-0.7-1.2-3-0.2-5.1
		C283.714,17.039,285.314,15.939,286.414,16.639z"/>
</g>
<line fill="none" stroke="#2BB673" stroke-miterlimit="10" x1="51.6" y1="196.8" x2="46.5" y2="197.9"/>
<line fill="none" stroke="#2BB673" stroke-miterlimit="10" x1="36.9" y1="188.8" x2="36.8" y2="184.7"/>
<line fill="none" stroke="#2BB673" stroke-miterlimit="10" x1="26.4" y1="183" x2="23.4" y2="178.9"/>
<line fill="none" stroke="#2BB673" stroke-miterlimit="10" x1="28.2" y1="184" x2="23.9" y2="185.4"/>
<path fill="#E3A6CB" d="M42.2,176.8c1.4-1.4,1.9-3.2,1-4.1c-0.6-0.6-1.6-0.6-2.7-0.1c-0.1-0.9-0.4-1.7-1.1-1.9
	c-0.7-0.3-1.6,0-2.4,0.8c-0.4-0.5-1-0.8-1.5-0.8c-0.8,0-1.4,0.7-1.8,1.6c-0.7-0.3-1.4-0.4-1.9-0.1c-1.1,0.6-1.2,2.5-0.2,4.2
	c1,1.7,2.7,2.5,3.8,1.9c0.2-0.1,0.4-0.3,0.5-0.6c0.3,0,0.6-0.2,0.8-0.4c0.3,0.1,0.6,0.1,0.9,0c0.1,0.2,0.2,0.3,0.3,0.4
	C38.9,178.6,40.8,178.2,42.2,176.8z"/>
<g>
	<path fill="#2BB673" d="M32.6,180.5c-1.1-1.9-0.2-3.5,2-3.5H39c2.2,0,3.1,1.6,2,3.5l-2.2,3.8c-1.1,1.9-2.9,1.9-4,0L32.6,180.5z"/>
</g>
<path fill="#E3A6CB" d="M9.4,167.9c-0.4-2-1.8-3.3-3-3.1c-0.8,0.2-1.4,1.1-1.5,2.3c-0.8-0.4-1.6-0.5-2.2-0.1
	c-0.6,0.5-0.8,1.4-0.6,2.4c-0.7,0.1-1.2,0.4-1.5,0.9c-0.4,0.7-0.2,1.6,0.4,2.4c-0.6,0.4-1,1-1.1,1.6c0,1.3,1.5,2.3,3.5,2.4
	c2,0,3.6-1,3.6-2.2c0-0.3-0.1-0.5-0.2-0.8c0.1-0.3,0.2-0.6,0.1-0.9c0.2-0.2,0.4-0.5,0.4-0.8c0.2,0,0.3,0,0.5,0
	C9.2,171.7,9.8,169.8,9.4,167.9z"/>
<g>
	<path fill="#2BB673" d="M7.1,171c0.9-2,2.7-2.2,4.1-0.4l2.3,3.1c1.3,1.8,0.6,3.3-1.6,3.5L8,177.4c-2.2,0.2-3.2-1.4-2.3-3.4L7.1,171
		z"/>
</g>
<path fill="#E3A6CB" d="M27.1,171c1.2-1.6,1.3-3.4,0.3-4.1c-0.7-0.5-1.7-0.3-2.6,0.3c-0.2-0.9-0.7-1.5-1.4-1.7
	c-0.7-0.2-1.5,0.3-2.1,1.1c-0.5-0.4-1-0.7-1.6-0.5c-0.7,0.2-1.2,0.9-1.4,1.8c-0.7-0.2-1.4-0.2-1.8,0.2c-0.9,0.8-0.7,2.6,0.5,4.1
	s3,2,3.9,1.3c0.2-0.2,0.3-0.4,0.4-0.6c0.3-0.1,0.5-0.3,0.7-0.5c0.3,0,0.6,0,0.8-0.2c0.1,0.1,0.2,0.3,0.3,0.4
	C24.3,173.2,26,172.5,27.1,171z"/>
<g>
	<path fill="#2BB673" d="M18.9,176.5c-1.5-1.6-1-3.3,1.1-3.8l4.3-1c2.1-0.5,3.4,0.8,2.8,2.9l-1.3,4.2c-0.6,2.1-2.4,2.5-3.9,0.9
		L18.9,176.5z"/>
</g>
<path fill="#E3A6CB" d="M15,181.4c-1.8-1.3-3.9-1.4-4.7-0.3c-0.6,0.8-0.4,1.9,0.4,3c-1,0.3-1.8,0.8-1.9,1.6
	c-0.2,0.8,0.3,1.7,1.3,2.4c-0.5,0.6-0.7,1.2-0.6,1.8c0.2,0.8,1,1.4,2.1,1.6c-0.3,0.8-0.2,1.6,0.2,2.1c0.9,1.1,3,0.8,4.7-0.7
	c1.7-1.4,2.4-3.4,1.5-4.5c-0.2-0.2-0.4-0.4-0.7-0.5c-0.1-0.3-0.3-0.6-0.6-0.8c0-0.3,0-0.6-0.2-1c0.2-0.1,0.3-0.2,0.4-0.4
	C17.5,184.6,16.8,182.6,15,181.4z"/>
<g>
	<path fill="#2BB673" d="M20.6,190.6c-1.6,1.5-3.3,0.9-3.8-1.3l-0.9-4.3c-0.4-2.2,0.9-3.4,3-2.7l4.2,1.4c2.1,0.7,2.5,2.4,0.8,3.9
		L20.6,190.6z"/>
</g>
<path fill="#E3A6CB" d="M39.8,193.9c-1.6-1.2-3.6-1.3-4.3-0.2c-0.5,0.7-0.3,1.7,0.3,2.7c-0.9,0.2-1.6,0.8-1.8,1.5
	c-0.2,0.8,0.3,1.6,1.1,2.2c-0.5,0.5-0.7,1.1-0.6,1.7c0.2,0.7,0.9,1.3,1.9,1.5c-0.2,0.7-0.2,1.4,0.2,1.9c0.8,1,2.7,0.7,4.3-0.6
	s2.2-3.2,1.3-4.1c-0.2-0.2-0.4-0.3-0.7-0.4c-0.1-0.3-0.3-0.6-0.5-0.8c0-0.3,0-0.6-0.2-0.9c0.1-0.1,0.3-0.2,0.4-0.4
	C42.2,196.8,41.5,195.1,39.8,193.9z"/>
<g>
	<path fill="#2BB673" d="M45.3,202.1c-1.6,1.5-3.3,0.9-3.8-1.3l-0.7-3.3c-0.4-2.2,0.9-3.4,3-2.7l3.2,1c2.1,0.7,2.5,2.4,0.8,3.9
		L45.3,202.1z"/>
</g>
<g>
	<line fill="none" stroke="#2BB673" stroke-miterlimit="10" x1="188.7" y1="242.2" x2="215.8" y2="205.9"/>
	<line fill="none" stroke="#2BB673" stroke-miterlimit="10" x1="197.2" y1="230.8" x2="196.7" y2="227.4"/>
	<line fill="none" stroke="#2BB673" stroke-miterlimit="10" x1="204.3" y1="221.4" x2="207.5" y2="221.5"/>
	<line fill="none" stroke="#2BB673" stroke-miterlimit="10" x1="209.4" y1="214.6" x2="212.8" y2="212.8"/>
	<line fill="none" stroke="#2BB673" stroke-miterlimit="10" x1="208.5" y1="215.8" x2="207.6" y2="212.8"/>
	<path fill="#E3A6CB" d="M213.4,225.5c1,1,2.4,1.4,3.2,0.9c0.5-0.4,0.5-1.1,0.2-1.8c0.7,0,1.3-0.2,1.6-0.7s0.1-1.1-0.5-1.6
		c0.4-0.3,0.7-0.6,0.7-1c0-0.5-0.5-1-1.2-1.3c0.3-0.4,0.4-0.9,0.2-1.3c-0.4-0.8-1.9-0.9-3.3-0.3c-1.4,0.6-2.1,1.7-1.7,2.4
		c0.1,0.2,0.2,0.3,0.4,0.4c0,0.2,0.1,0.4,0.3,0.6c-0.1,0.2-0.1,0.4,0,0.6c-0.1,0-0.2,0.1-0.4,0.2
		C212.2,223.2,212.4,224.4,213.4,225.5z"/>
	<g>
		<path fill="#2BB673" d="M210.2,219.2c2-0.9,3.5,0.2,3.4,2.4v0.3c-0.2,2.2-1.9,3.1-3.8,2l-1.2-0.7c-1.9-1.1-1.8-2.7,0.2-3.5
			L210.2,219.2z"/>
	</g>
	<path fill="#E3A6CB" d="M222.1,203.9c1.6-0.2,2.7-1,2.6-1.9c-0.1-0.6-0.8-1-1.7-1.1c0.4-0.5,0.5-1.1,0.2-1.5s-1.1-0.6-1.9-0.5
		c0-0.5-0.2-0.8-0.6-1c-0.5-0.3-1.2-0.2-1.9,0.2c-0.3-0.4-0.7-0.7-1.2-0.8c-1-0.1-1.9,0.9-2.1,2.2c-0.1,1.3,0.6,2.4,1.6,2.5
		c0.2,0,0.4,0,0.6-0.1c0.2,0.1,0.5,0.1,0.7,0.1c0.2,0.1,0.4,0.3,0.6,0.3c0,0.1,0,0.2,0,0.3C219.1,203.6,220.6,204.1,222.1,203.9z"/>
	<g>
		<path fill="#2BB673" d="M218.9,201.8c2,0.9,2,2.5,0.1,3.6l-0.8,0.5c-1.9,1.1-3.5,0.1-3.5-2.1s1.6-3.2,3.6-2.3L218.9,201.8z"/>
	</g>
	<path fill="#E3A6CB" d="M218.8,215.6c1.2,0.8,2.6,1,3.2,0.4c0.4-0.4,0.3-1.1-0.1-1.7c0.7-0.1,1.2-0.4,1.4-0.8
		c0.2-0.5-0.1-1-0.7-1.5c0.4-0.3,0.6-0.7,0.5-1c-0.1-0.5-0.6-0.9-1.3-1c0.2-0.5,0.2-0.9-0.1-1.2c-0.6-0.7-2-0.6-3.2,0.1
		c-1.2,0.7-1.8,1.9-1.2,2.6c0.1,0.1,0.3,0.2,0.5,0.3c0.1,0.2,0.2,0.4,0.4,0.5c0,0.2,0,0.4,0.1,0.6c-0.1,0.1-0.2,0.1-0.3,0.2
		C217.2,213.6,217.6,214.8,218.8,215.6z"/>
	<g>
		<path fill="#2BB673" d="M214,210.5c1.8-1.3,3.6-0.5,4,1.6l0.1,0.4c0.4,2.2-0.9,3.4-3,2.7l-1.5-0.5c-2.1-0.7-2.3-2.2-0.6-3.5
			L214,210.5z"/>
	</g>
	<path fill="#E3A6CB" d="M211.3,207c1.1-1.1,1.3-2.5,0.5-3.1c-0.6-0.4-1.5-0.3-2.3,0.1c-0.1-0.7-0.6-1.2-1.2-1.4
		c-0.7-0.2-1.4,0.1-2,0.7c-0.4-0.4-0.9-0.6-1.4-0.5c-0.6,0.1-1.1,0.6-1.4,1.3c-0.6-0.2-1.2-0.2-1.6,0.1c-0.9,0.5-0.7,2,0.3,3.2
		s2.6,1.7,3.5,1.2c0.2-0.1,0.3-0.3,0.4-0.5c0.3-0.1,0.5-0.2,0.7-0.4c0.3,0,0.5,0,0.8-0.1c0.1,0.1,0.2,0.2,0.3,0.3
		C208.6,208.6,210.2,208.2,211.3,207z"/>
	<g>
		<path fill="#2BB673" d="M204.5,211.2c-1.5-1.6-0.9-3.2,1.3-3.4l1.7-0.2c2.2-0.3,3.2,1.2,2.3,3.1l-0.2,0.5c-0.9,2-2.9,2.3-4.4,0.7
			L204.5,211.2z"/>
	</g>
	<path fill="#E3A6CB" d="M200.1,223.1c1-1,1.2-2.3,0.4-2.9c-0.5-0.4-1.3-0.3-2.1,0.1c-0.1-0.6-0.5-1.1-1.1-1.3s-1.3,0.1-1.8,0.7
		c-0.4-0.3-0.8-0.5-1.3-0.4c-0.6,0.1-1,0.6-1.2,1.2c-0.6-0.2-1.1-0.2-1.5,0.1c-0.8,0.5-0.7,1.8,0.3,2.9c0.9,1.1,2.4,1.6,3.2,1.1
		c0.2-0.1,0.3-0.3,0.4-0.4c0.2,0,0.5-0.2,0.6-0.3c0.2,0,0.5,0,0.7-0.1c0.1,0.1,0.2,0.2,0.3,0.3C197.7,224.6,199.1,224.2,200.1,223.1
		z"/>
	<g>
		<path fill="#2BB673" d="M194.2,227.2c-1.5-1.6-0.9-3.2,1.3-3.4l0.9-0.1c2.2-0.3,3.2,1.1,2.3,3.1s-2.9,2.2-4.4,0.6L194.2,227.2z"/>
	</g>
</g>
<g>
	<line fill="none" stroke="#2BB673" stroke-miterlimit="10" x1="258.214" y1="91.939" x2="249.514" y2="28.339"/>
	<line fill="none" stroke="#2BB673" stroke-miterlimit="10" x1="255.514" y1="72.039" x2="251.614" y2="68.539"/>
	<line fill="none" stroke="#2BB673" stroke-miterlimit="10" x1="253.214" y1="55.439" x2="256.414" y2="52.939"/>
	<line fill="none" stroke="#2BB673" stroke-miterlimit="10" x1="251.614" y1="43.539" x2="253.114" y2="38.639"/>
	<line fill="none" stroke="#2BB673" stroke-miterlimit="10" x1="251.814" y1="45.639" x2="248.114" y2="42.939"/>
	<path fill="#E3A6CB" d="M266.014,52.539c2,0.3,3.7-0.4,3.9-1.6c0.1-0.8-0.5-1.7-1.5-2.2c0.7-0.6,1.1-1.3,0.9-2
		c-0.2-0.8-1-1.3-2-1.4c0.2-0.7,0.1-1.3-0.3-1.7c-0.5-0.6-1.4-0.7-2.3-0.5c-0.1-0.7-0.5-1.3-1.1-1.6c-1.2-0.5-2.7,0.6-3.5,2.4
		c-0.8,1.8-0.5,3.7,0.7,4.2c0.2,0.1,0.5,0.1,0.8,0.1c0.2,0.2,0.5,0.4,0.8,0.4c0.1,0.3,0.3,0.5,0.6,0.7c-0.1,0.2-0.2,0.3-0.2,0.5
		C262.514,51.039,264.014,52.239,266.014,52.539z"/>
	<g>
		<path fill="#2BB673" d="M257.314,47.039c0.9-2,2.7-2.2,4-0.4l2.6,3.6c1.3,1.8,0.6,3.4-1.6,3.7l-4.4,0.5c-2.2,0.3-3.3-1.2-2.4-3.2
			L257.314,47.039z"/>
	</g>
	<path fill="#E3A6CB" d="M253.614,20.839c1.3-1.5,1.6-3.4,0.7-4.2c-0.6-0.5-1.7-0.4-2.7,0.1c-0.1-0.9-0.6-1.6-1.3-1.8
		c-0.8-0.2-1.6,0.2-2.3,1c-0.5-0.5-1-0.7-1.6-0.6c-0.8,0.1-1.3,0.8-1.6,1.8c-0.7-0.3-1.4-0.3-1.9,0.1c-1,0.7-1,2.6,0.2,4.2
		c1.1,1.6,2.9,2.3,3.9,1.6c0.2-0.2,0.4-0.4,0.5-0.6c0.3-0.1,0.6-0.2,0.8-0.5c0.3,0,0.6,0,0.9-0.1c0.1,0.2,0.2,0.3,0.3,0.4
		C250.414,23.039,252.314,22.439,253.614,20.839z"/>
	<g>
		<path fill="#2BB673" d="M249.814,20.939c2.2-0.4,3.4,0.9,2.7,3l-1.1,3.7c-0.6,2.1-2.3,2.5-3.8,0.8l-2.5-2.9
			c-1.4-1.7-0.8-3.4,1.3-3.9L249.814,20.939z"/>
	</g>
	<path fill="#E3A6CB" d="M261.714,37.039c1.9,0,3.5-1,3.5-2.2c0-0.8-0.7-1.5-1.8-1.9c0.6-0.7,0.8-1.5,0.5-2.1
		c-0.3-0.7-1.1-1.1-2.1-1.1c0.1-0.7-0.1-1.2-0.5-1.6c-0.6-0.5-1.4-0.5-2.3-0.1c-0.2-0.7-0.7-1.2-1.3-1.3c-1.2-0.3-2.5,1-3,2.8
		c-0.5,1.9,0.1,3.6,1.3,3.9c0.2,0.1,0.5,0,0.8,0c0.2,0.2,0.5,0.3,0.9,0.3c0.2,0.2,0.4,0.4,0.6,0.6c-0.1,0.2-0.1,0.3-0.1,0.5
		C258.214,36.039,259.814,37.039,261.714,37.039z"/>
	<g>
		<path fill="#2BB673" d="M252.314,33.739c0.4-2.2,2.1-2.8,3.8-1.4l3.4,2.9c1.7,1.4,1.4,3.2-0.7,4l-4.2,1.5
			c-2.1,0.8-3.4-0.4-3.1-2.6L252.314,33.739z"/>
	</g>
	<path fill="#E3A6CB" d="M246.114,33.439c0-2.2-1.2-4-2.6-3.9c-0.9,0-1.7,0.8-2.2,2c-0.8-0.7-1.7-0.9-2.4-0.6
		c-0.8,0.3-1.2,1.3-1.2,2.4c-0.8-0.1-1.4,0.1-1.8,0.6c-0.5,0.6-0.5,1.6-0.1,2.6c-0.8,0.3-1.4,0.8-1.5,1.4c-0.3,1.3,1.2,2.9,3.3,3.4
		c2.2,0.5,4.2-0.2,4.5-1.5c0.1-0.3,0-0.6,0-0.9c0.2-0.3,0.3-0.6,0.3-1c0.3-0.2,0.5-0.4,0.7-0.7c0.2,0.1,0.4,0.1,0.6,0.1
		C245.014,37.439,246.114,35.639,246.114,33.439z"/>
	<g>
		<path fill="#2BB673" d="M242.114,43.439c-2.2-0.4-2.7-2.2-1.2-3.8l3-3.3c1.5-1.6,3.2-1.3,3.9,0.8l1.4,4.2c0.7,2.1-0.5,3.4-2.7,3
			L242.114,43.439z"/>
	</g>
	<path fill="#E3A6CB" d="M250.814,60.839c0-2-1.1-3.6-2.4-3.6c-0.9,0-1.6,0.8-2,1.9c-0.7-0.6-1.6-0.8-2.2-0.6
		c-0.7,0.3-1.1,1.2-1.1,2.2c-0.7-0.1-1.3,0.1-1.7,0.5c-0.5,0.6-0.5,1.5,0,2.4c-0.7,0.3-1.3,0.7-1.4,1.3c-0.3,1.2,1.1,2.6,3,3.1
		c2,0.5,3.8-0.1,4.1-1.4c0.1-0.3,0-0.5,0-0.8c0.2-0.3,0.3-0.6,0.3-0.9c0.3-0.2,0.5-0.4,0.6-0.7c0.2,0.1,0.3,0.1,0.5,0.1
		C249.814,64.539,250.814,62.839,250.814,60.839z"/>
	<g>
		<path fill="#2BB673" d="M247.414,70.139c-2.2-0.4-2.7-2.2-1.2-3.8l2.3-2.5c1.5-1.6,3.2-1.3,3.9,0.8l1.1,3.2c0.7,2.1-0.5,3.4-2.7,3
			L247.414,70.139z"/>
	</g>
</g>
<g>
	<g>
		<g>
			<path fill="#F8A8A2" d="M56.969,198.665c-1.3,4.8-5.2,5.8-8.7,2.3s-2.4-7.4,2.4-8.6
				C55.469,191.065,58.269,193.865,56.969,198.665z"/>
		</g>
		<g>
			<path fill="#F8A8A2" d="M56.069,200.165c0.8-4.9,4.6-6.3,8.4-3.2c3.8,3.1,3.2,7.1-1.4,8.8
				C58.469,207.565,55.369,205.065,56.069,200.165z"/>
		</g>
		<g>
			<path fill="#F8A8A2" d="M61.569,189.065c-0.7,4.9-4.4,6.4-8.3,3.3s-3.3-7,1.3-8.9S62.169,184.265,61.569,189.065z"/>
		</g>
		<g>
			<path fill="#F8A8A2" d="M63.869,197.065c4.6,1.7,7.7-0.9,6.9-5.7c-0.8-4.9-4.6-6.2-8.4-3.1
				C58.569,191.365,59.269,195.365,63.869,197.065z"/>
		</g>
	</g>
	
		<ellipse transform="matrix(-0.2686 -0.9632 0.9632 -0.2686 -113.1018 303.4591)" fill="#FCE0E6" cx="58.656" cy="194.668" rx="2.8" ry="2.9"/>
</g>
<g>
	<g>
		<g>
			<path fill="#F8A8A2" d="M185.7,239.1c-1.3,4.8-5.2,5.8-8.7,2.3s-2.4-7.4,2.4-8.6C184.2,231.5,187,234.4,185.7,239.1z"/>
		</g>
		<g>
			<path fill="#F8A8A2" d="M184.9,240.7c0.8-4.9,4.6-6.3,8.4-3.2c3.8,3.1,3.2,7.1-1.4,8.8C187.2,248.1,184.1,245.5,184.9,240.7z"/>
		</g>
		<g>
			<path fill="#F8A8A2" d="M190.3,229.6c-0.7,4.9-4.4,6.4-8.3,3.3s-3.3-7,1.3-8.9C187.8,222.2,191,224.7,190.3,229.6z"/>
		</g>
		<g>
			<path fill="#F8A8A2" d="M192.6,237.5c4.6,1.7,7.7-0.9,6.9-5.7c-0.8-4.9-4.6-6.2-8.4-3.1C187.3,231.9,188,235.8,192.6,237.5z"/>
		</g>
	</g>
	
		<ellipse transform="matrix(-0.2686 -0.9632 0.9632 -0.2686 11.1727 478.8951)" fill="#FCE0E6" cx="187.397" cy="235.206" rx="2.8" ry="2.9"/>
</g>
<g>
	<g>
		<g>
			<path fill="#F8A8A2" d="M256.214,85.339c-1.3,4.8-5.2,5.8-8.7,2.3s-2.4-7.4,2.4-8.6
				C254.714,77.739,257.514,80.639,256.214,85.339z"/>
		</g>
		<g>
			<path fill="#F8A8A2" d="M255.414,86.939c0.8-4.9,4.6-6.3,8.4-3.2c3.8,3.1,3.2,7.1-1.4,8.8
				C257.714,94.339,254.614,91.739,255.414,86.939z"/>
		</g>
		<g>
			<path fill="#F8A8A2" d="M260.814,75.839c-0.7,4.9-4.4,6.4-8.3,3.3c-3.9-3-3.3-7,1.3-8.9
				C258.414,68.339,261.514,70.939,260.814,75.839z"/>
		</g>
		<g>
			<path fill="#F8A8A2" d="M263.214,83.739c4.6,1.7,7.7-0.9,6.9-5.7c-0.8-4.9-4.6-6.2-8.4-3.1
				C257.914,78.139,258.514,82.039,263.214,83.739z"/>
		</g>
	</g>
	
		<ellipse transform="matrix(-0.2686 -0.9632 0.9632 -0.2686 248.8764 351.8317)" fill="#FCE0E6" cx="258.01" cy="81.431" rx="2.8" ry="2.9"/>
</g>
<g>
	<g>
		<g>
			<path fill="#C998C5" d="M26,72.75c-4.1-0.3-5.5-3.3-3.2-6.7c2.3-3.4,5.6-3.1,7.4,0.6C32,70.35,30.1,73.05,26,72.75z"/>
		</g>
		<g>
			<path fill="#C998C5" d="M24.6,72.35c4.1-0.1,5.8,2.7,3.9,6.3c-1.9,3.6-5.3,3.7-7.4,0.2C19,75.45,20.6,72.45,24.6,72.35z"/>
		</g>
		<g>
			<path fill="#C998C5" d="M34.5,74.95c-4.1,0.2-5.9-2.6-4-6.2c1.9-3.6,5.2-3.8,7.4-0.4C40.1,71.85,38.6,74.75,34.5,74.95z"/>
		</g>
		<g>
			<path fill="#C998C5" d="M28.4,78.15c-0.6,4,1.9,6.1,5.7,4.7c3.8-1.5,4.3-4.7,1.2-7.3C32.2,72.95,29.1,74.15,28.4,78.15z"/>
		</g>
	</g>
	
		<ellipse transform="matrix(0.8942 -0.4477 0.4477 0.8942 -29.8033 21.0022)" fill="#F9D8E7" cx="29.528" cy="73.55" rx="2.3" ry="2.4"/>
</g>
<g>
	<g>
		<g>
			<path fill="#839BD0" d="M42.6,74.65c-3.9-3.4-3.1-7.6,1.8-9.3c4.9-1.7,8.1,1.1,7.2,6.2C50.6,76.65,46.6,78.05,42.6,74.65z"/>
		</g>
		<g>
			<path fill="#839BD0" d="M41.5,73.15c4.3,3,3.9,7.2-0.8,9.4s-8.2-0.2-7.8-5.4C33.4,72.05,37.2,70.15,41.5,73.15z"/>
		</g>
		<g>
			<path fill="#839BD0" d="M49.6,83.35c-4.3-2.9-4.1-7.1,0.6-9.5s8.2,0,7.9,5.2C57.8,84.35,54,86.25,49.6,83.35z"/>
		</g>
		<g>
			<path fill="#839BD0" d="M41,82.05c-3.7,3.6-2.7,7.8,2.4,9.2c5,1.4,8.1-1.6,6.8-6.6C48.8,79.55,44.7,78.35,41,82.05z"/>
		</g>
	</g>
	
		<ellipse transform="matrix(0.9851 0.172 -0.172 0.9851 14.1161 -6.6741)" fill="#E2DFEF" cx="45.572" cy="78.122" rx="3" ry="3.1"/>
</g>
<g>
	<g>
		<g>
			<path fill="#F8A8A2" d="M38.8,66.35c-3,0.6-4.6-1.3-3.7-4.2c1-2.9,3.4-3.4,5.4-1.1C42.6,63.45,41.8,65.75,38.8,66.35z"/>
		</g>
		<g>
			<path fill="#F8A8A2" d="M37.7,66.35c2.9-0.9,4.7,0.8,4.1,3.8c-0.7,3-3,3.7-5.3,1.7C34.2,69.65,34.8,67.25,37.7,66.35z"/>
		</g>
		<g>
			<path fill="#F8A8A2" d="M45.3,66.25c-2.9,1-4.8-0.7-4.2-3.7c0.6-3,3-3.8,5.3-1.8C48.7,62.85,48.2,65.25,45.3,66.25z"/>
		</g>
		<g>
			<path fill="#F8A8A2" d="M41.6,69.75c0.3,3,2.6,4,5.1,2.2s2.2-4.3-0.6-5.5C43.2,65.25,41.2,66.75,41.6,69.75z"/>
		</g>
	</g>
	
		<ellipse transform="matrix(0.741 -0.6715 0.6715 0.741 -33.7447 44.9605)" fill="#FCE0E6" cx="41.412" cy="66.225" rx="1.7" ry="1.8"/>
</g>
<g>
	<g>
		<g>
			<path fill="#C998C5" d="M247.585,149.378c-4-0.5-5.2-3.5-2.8-6.7s5.7-2.8,7.2,0.9S251.585,149.878,247.585,149.378z"/>
		</g>
		<g>
			<path fill="#C998C5" d="M246.285,148.878c4,0.1,5.6,2.9,3.5,6.4s-5.3,3.3-7.2-0.2
				C240.585,151.578,242.285,148.778,246.285,148.878z"/>
		</g>
		<g>
			<path fill="#C998C5" d="M255.785,151.878c-4,0-5.6-2.8-3.6-6.3c2-3.4,5.3-3.4,7.2,0
				C261.385,149.078,259.685,151.978,255.785,151.878z"/>
		</g>
		<g>
			<path fill="#C998C5" d="M249.585,154.678c-0.8,3.9,1.6,6.1,5.4,4.9c3.8-1.2,4.5-4.4,1.5-7.1
				C253.485,149.778,250.485,150.878,249.585,154.678z"/>
		</g>
	</g>
	<ellipse fill="#F9D8E7" cx="250.966" cy="150.323" rx="2.3" ry="2.3"/>
</g>
<g>
	<g>
		<g>
			<path fill="#839BD0" d="M263.685,152.078c-3.7-3.5-2.7-7.6,2.2-9c4.9-1.4,7.9,1.5,6.7,6.4
				C271.385,154.378,267.385,155.578,263.685,152.078z"/>
		</g>
		<g>
			<path fill="#839BD0" d="M262.685,150.478c4,3.1,3.5,7.3-1.2,9.2s-8-0.6-7.3-5.7C254.785,148.978,258.685,147.378,262.685,150.478
				z"/>
		</g>
		<g>
			<path fill="#839BD0" d="M270.085,160.878c-4.1-3-3.6-7.2,1.1-9.2s8,0.5,7.4,5.5C277.985,162.278,274.185,163.978,270.085,160.878
				z"/>
		</g>
		<g>
			<path fill="#839BD0" d="M261.685,159.178c-3.8,3.4-3,7.5,1.8,9.1s8-1.1,7-6.1S265.485,155.778,261.685,159.178z"/>
		</g>
	</g>
	
		<ellipse transform="matrix(0.9745 0.2243 -0.2243 0.9745 41.6732 -55.797)" fill="#E2DFEF" cx="266.423" cy="155.523" rx="2.9" ry="3"/>
</g>
<g>
	<g>
		<g>
			<path fill="#F8A8A2" d="M260.385,143.778c-3,0.4-4.5-1.5-3.4-4.3c1.1-2.8,3.5-3.1,5.4-0.8S263.285,143.278,260.385,143.778z"/>
		</g>
		<g>
			<path fill="#F8A8A2" d="M259.285,143.678c2.9-0.7,4.6,1,3.8,3.9c-0.8,2.9-3.2,3.5-5.3,1.3
				C255.785,146.778,256.385,144.378,259.285,143.678z"/>
		</g>
		<g>
			<path fill="#F8A8A2" d="M266.785,143.978c-2.9,0.8-4.6-0.9-3.9-3.8c0.7-2.9,3.1-3.5,5.2-1.4S269.685,143.178,266.785,143.978z"/>
		</g>
		<g>
			<path fill="#F8A8A2" d="M262.885,147.178c0.2,3,2.4,4.1,4.9,2.4c2.5-1.6,2.3-4.1-0.3-5.4
				C264.785,142.878,262.785,144.278,262.885,147.178z"/>
		</g>
	</g>
	
		<ellipse transform="matrix(0.7758 -0.631 0.631 0.7758 -31.7674 198.1611)" fill="#FCE0E6" cx="262.957" cy="143.782" rx="1.7" ry="1.8"/>
</g>
<g>
	<g>
		<g>
			<path fill="#C998C5" d="M77.019,20.913c-4.1-0.3-5.5-3.3-3.2-6.7s5.6-3.1,7.4,0.6S81.019,21.213,77.019,20.913z"/>
		</g>
		<g>
			<path fill="#C998C5" d="M75.619,20.513c4.1-0.1,5.8,2.7,3.9,6.3s-5.3,3.7-7.4,0.2C69.919,23.613,71.519,20.613,75.619,20.513z"/>
		</g>
		<g>
			<path fill="#C998C5" d="M85.419,23.113c-4.1,0.2-5.9-2.6-4-6.2s5.2-3.8,7.4-0.4S89.519,22.913,85.419,23.113z"/>
		</g>
		<g>
			<path fill="#C998C5" d="M79.319,26.313c-0.6,4,1.9,6.1,5.7,4.7c3.8-1.5,4.3-4.7,1.2-7.3S80.019,22.313,79.319,26.313z"/>
		</g>
	</g>
	
		<ellipse transform="matrix(0.8942 -0.4477 0.4477 0.8942 -1.1925 38.3142)" fill="#F9D8E7" cx="80.457" cy="21.68" rx="2.3" ry="2.4"/>
</g>
<g>
	<g>
		<g>
			<path fill="#C998C5" d="M93.626,225.67c-4.1-0.3-5.5-3.3-3.2-6.7s5.6-3.1,7.4,0.6C99.526,223.17,97.626,225.97,93.626,225.67z"/>
		</g>
		<g>
			<path fill="#C998C5" d="M92.226,225.17c4.1-0.1,5.8,2.7,3.9,6.3s-5.3,3.7-7.4,0.2C86.526,228.27,88.126,225.37,92.226,225.17z"/>
		</g>
		<g>
			<path fill="#C998C5" d="M102.026,227.87c-4.1,0.2-5.9-2.6-4-6.2c1.9-3.6,5.2-3.8,7.4-0.4S106.126,227.67,102.026,227.87z"/>
		</g>
		<g>
			<path fill="#C998C5" d="M95.926,231.07c-0.6,4,1.9,6.1,5.7,4.7c3.8-1.5,4.3-4.7,1.2-7.3
				C99.726,225.77,96.626,226.97,95.926,231.07z"/>
		</g>
	</g>
	
		<ellipse transform="matrix(0.8942 -0.4477 0.4477 0.8942 -91.0947 67.3809)" fill="#F9D8E7" cx="96.997" cy="226.401" rx="2.3" ry="2.4"/>
</g>
<g>
	<g>
		<g>
			<path fill="#C998C5" d="M204.953,28.283c-2.3,3.2-5.6,2.9-7.2-0.7c-1.6-3.6,0.3-6.3,4.2-5.9S207.253,25.083,204.953,28.283z"/>
		</g>
		<g>
			<path fill="#C998C5" d="M203.853,29.283c2-3.5,5.2-3.5,7.2,0s0.4,6.3-3.6,6.3C203.553,35.483,201.853,32.683,203.853,29.283z"/>
		</g>
		<g>
			<path fill="#C998C5" d="M211.053,22.383c-1.9,3.5-5.2,3.6-7.2,0.2c-2.1-3.4-0.5-6.3,3.5-6.4
				C211.253,16.083,212.953,18.883,211.053,22.383z"/>
		</g>
		<g>
			<path fill="#C998C5" d="M210.653,29.083c3,2.6,6.1,1.5,6.8-2.4s-1.7-6-5.5-4.7C208.253,23.283,207.653,26.483,210.653,29.083z"/>
		</g>
	</g>
	<ellipse fill="#F9D8E7" cx="207.359" cy="25.783" rx="2.3" ry="2.3"/>
</g>
<g>
	<g>
		<g>
			<path fill="#839BD0" d="M214.953,15.483c-4.9,1.5-7.9-1.3-6.9-6.2s5.1-6.2,8.8-2.8S219.853,13.883,214.953,15.483z"/>
		</g>
		<g>
			<path fill="#839BD0" d="M213.153,15.583c4.7-2.1,8,0.4,7.5,5.5c-0.6,5.1-4.4,6.7-8.5,3.7S208.453,17.583,213.153,15.583z"/>
		</g>
		<g>
			<path fill="#839BD0" d="M225.853,14.083c-4.6,2.1-8-0.2-7.6-5.3s4.2-6.8,8.4-3.9S230.453,11.883,225.853,14.083z"/>
		</g>
		<g>
			<path fill="#839BD0" d="M220.253,20.583c1.1,5,5.1,6.2,8.9,2.7s2.8-7.5-2.1-9S219.153,15.583,220.253,20.583z"/>
		</g>
	</g>
	
		<ellipse transform="matrix(0.6619 -0.7496 0.7496 0.6619 63.174 169.4161)" fill="#E2DFEF" cx="219.389" cy="14.678" rx="2.9" ry="3"/>
</g>
<g>
	<g>
		<g>
			<path fill="#C998C5" d="M32.5,107.9c-4.1-0.3-5.5-3.3-3.2-6.7c2.3-3.4,5.6-3.1,7.4,0.6C38.4,105.4,36.6,108.2,32.5,107.9z"/>
		</g>
		<g>
			<path fill="#C998C5" d="M31.1,107.4c4.1-0.1,5.8,2.7,3.9,6.3c-1.9,3.6-5.3,3.7-7.4,0.2C25.5,110.5,27,107.6,31.1,107.4z"/>
		</g>
		<g>
			<path fill="#C998C5" d="M41,110.1c-4.1,0.2-5.9-2.6-4-6.2s5.2-3.8,7.4-0.4C46.5,106.9,45,109.9,41,110.1z"/>
		</g>
		<g>
			<path fill="#C998C5" d="M34.9,113.3c-0.6,4,1.9,6.1,5.7,4.7c3.8-1.5,4.3-4.7,1.2-7.3S35.5,109.2,34.9,113.3z"/>
		</g>
	</g>
	
		<ellipse transform="matrix(0.8942 -0.4477 0.4477 0.8942 -44.8593 27.5905)" fill="#F9D8E7" cx="35.938" cy="108.695" rx="2.3" ry="2.4"/>
</g>
<g>
	<g>
		<g>
			<path fill="#F8A8A2" d="M26.1,115.8c-3,0.6-4.6-1.3-3.7-4.2c1-2.9,3.4-3.4,5.4-1.1C29.9,112.8,29.1,115.2,26.1,115.8z"/>
		</g>
		<g>
			<path fill="#F8A8A2" d="M25,115.7c2.9-0.9,4.7,0.8,4.1,3.8c-0.7,3-3,3.7-5.3,1.7S22.1,116.7,25,115.7z"/>
		</g>
		<g>
			<path fill="#F8A8A2" d="M32.7,115.7c-2.9,1-4.8-0.7-4.2-3.7c0.6-3,3-3.8,5.3-1.8C36.1,112.3,35.6,114.7,32.7,115.7z"/>
		</g>
		<g>
			<path fill="#F8A8A2" d="M28.9,119.2c0.3,3,2.6,4,5.1,2.2s2.2-4.3-0.6-5.5S28.6,116.2,28.9,119.2z"/>
		</g>
	</g>
	
		<ellipse transform="matrix(0.741 -0.6715 0.6715 0.741 -70.2404 49.2819)" fill="#FCE0E6" cx="28.766" cy="115.697" rx="1.7" ry="1.8"/>
</g>
<g>
	<g>
		<g>
			<path fill="#839BD0" d="M54.28,206.5c-2.772,0.848-4.469-0.735-3.903-3.507s2.885-3.507,4.978-1.584
				C57.447,203.332,57.051,205.595,54.28,206.5z"/>
		</g>
		<g>
			<path fill="#839BD0" d="M53.261,206.557c2.659-1.188,4.525,0.226,4.242,3.111c-0.339,2.885-2.489,3.79-4.808,2.093
				C50.377,210.064,50.603,207.688,53.261,206.557z"/>
		</g>
		<g>
			<path fill="#839BD0" d="M60.445,205.708c-2.602,1.188-4.525-0.113-4.299-2.998c0.226-2.885,2.376-3.847,4.752-2.206
				C63.274,202.144,63.047,204.464,60.445,205.708z"/>
		</g>
		<g>
			<path fill="#839BD0" d="M57.278,209.385c0.622,2.828,2.885,3.507,5.034,1.527c2.15-1.98,1.584-4.242-1.188-5.091
				S56.655,206.557,57.278,209.385z"/>
		</g>
	</g>
	
		<ellipse transform="matrix(0.6619 -0.7496 0.7496 0.6619 -135.2495 112.2336)" fill="#E2DFEF" cx="56.789" cy="206.045" rx="1.64" ry="1.697"/>
</g>
</svg>
